<svg width="80" height="80" viewBox="0 0 80 80" fill="none" xmlns="http://www.w3.org/2000/svg">
<circle cx="40" cy="40" r="38.5" fill="white" stroke="#EC0080" stroke-width="3"/>
<path d="M53.75 22.5H26.25C24.1406 22.5 22.5 24.2188 22.5 26.25V53.75C22.5 55.8594 24.1406 57.5 26.25 57.5H53.75C55.7812 57.5 57.5 55.8594 57.5 53.75V26.25C57.5 24.2188 55.7812 22.5 53.75 22.5ZM53.75 25C54.375 25 55 25.625 55 26.25V53.75C55 54.4531 54.375 55 53.75 55H26.25C25.5469 55 25 54.4531 25 53.75V26.25C25 25.625 25.5469 25 26.25 25H53.75ZM51.0156 32.7344L50.3906 32.0312C50 31.7188 49.375 31.7188 49.0625 32.0312L36.25 44.6875L30.8594 39.2969C30.5469 38.9062 29.9219 38.9062 29.5312 39.2969L28.9062 39.9219C28.5156 40.3125 28.5156 40.8594 28.9062 41.25L35.625 48.0469C35.9375 48.3594 36.5625 48.3594 36.9531 48.0469L51.0156 34.0625C51.4062 33.6719 51.4062 33.0469 51.0156 32.7344Z" fill="#6D218C"/>
</svg>
