<svg width="80" height="80" viewBox="0 0 80 80" fill="none" xmlns="http://www.w3.org/2000/svg">
<circle cx="40" cy="40" r="38.5" fill="white" stroke="#EC0080" stroke-width="3"/>
<path d="M44.9219 40.3125L35.7031 37.4219C33.8281 36.7969 32.5 34.7656 32.5 32.5781C32.5 29.7656 34.4531 27.5 36.9531 27.5H42.6562C44.4531 27.5 46.0938 28.2031 47.3438 29.4531C47.6562 29.6875 47.9688 29.6875 48.2031 29.4531L49.1406 28.5938C49.4531 28.3594 49.4531 27.9688 49.2188 27.7344C47.4219 26.0156 45.0781 25 42.6562 25H41.25V20.625C41.25 20.3125 40.9375 20 40.625 20H39.375C38.9844 20 38.75 20.3125 38.75 20.625V25H36.9531C33.0469 25 30 28.4375 30 32.5781C30 35.8594 32.0312 38.8281 35 39.7656L44.2188 42.6562C46.0938 43.2812 47.5 45.2344 47.5 47.5C47.5 50.3125 45.4688 52.5 43.0469 52.5H37.2656C35.5469 52.5 33.8281 51.875 32.5781 50.625C32.3438 50.3906 31.9531 50.3906 31.7188 50.625L30.7812 51.4062C30.5469 51.6406 30.4688 52.1094 30.7812 52.3438C32.5 54.0625 34.8438 55 37.2656 55H38.75V59.375C38.75 59.7656 38.9844 60 39.375 60H40.625C40.9375 60 41.25 59.7656 41.25 59.375V55H43.0469C46.875 55 50 51.6406 50 47.5C50 44.2188 47.8906 41.25 44.9219 40.3125Z" fill="#6D218C"/>
</svg>
