<svg width="80" height="80" viewBox="0 0 80 80" fill="none" xmlns="http://www.w3.org/2000/svg">
<circle cx="40" cy="40" r="38.5" fill="white" stroke="#EC0080" stroke-width="3"/>
<path d="M48.4375 37.5H51.4844C51.9531 37.5 52.5 37.0312 52.5 36.5625V33.5156C52.5 33.0469 51.9531 32.5 51.4844 32.5H48.4375C47.9688 32.5 47.5 33.0469 47.5 33.5156V36.5625C47.5 37.0312 47.9688 37.5 48.4375 37.5ZM38.4375 30H41.4844C41.9531 30 42.5 29.5312 42.5 29.0625V26.0156C42.5 25.5469 41.9531 25 41.4844 25H38.4375C37.9688 25 37.5 25.5469 37.5 26.0156V29.0625C37.5 29.5312 37.9688 30 38.4375 30ZM48.4375 30H51.4844C51.9531 30 52.5 29.5312 52.5 29.0625V26.0156C52.5 25.5469 51.9531 25 51.4844 25H48.4375C47.9688 25 47.5 25.5469 47.5 26.0156V29.0625C47.5 29.5312 47.9688 30 48.4375 30ZM28.4375 30H31.4844C31.9531 30 32.5 29.5312 32.5 29.0625V26.0156C32.5 25.5469 31.9531 25 31.4844 25H28.4375C27.9688 25 27.5 25.5469 27.5 26.0156V29.0625C27.5 29.5312 27.9688 30 28.4375 30ZM38.4375 37.5H41.4844C41.9531 37.5 42.5 37.0312 42.5 36.5625V33.5156C42.5 33.0469 41.9531 32.5 41.4844 32.5H38.4375C37.9688 32.5 37.5 33.0469 37.5 33.5156V36.5625C37.5 37.0312 37.9688 37.5 38.4375 37.5ZM61.875 22.5C62.1875 22.5 62.5 22.2656 62.5 21.875V20.625C62.5 20.3125 62.1875 20 61.875 20H18.125C17.7344 20 17.5 20.3125 17.5 20.625V21.875C17.5 22.2656 17.7344 22.5 18.125 22.5H19.9219V57.5H18.125C17.7344 57.5 17.5 57.8125 17.5 58.125V59.375C17.5 59.7656 17.7344 60 18.125 60H61.875C62.1875 60 62.5 59.7656 62.5 59.375V58.125C62.5 57.8125 62.1875 57.5 61.875 57.5H60V22.5H61.875ZM42.5 57.5H37.5V51.25C37.5 50.625 38.0469 50 38.75 50H41.25C41.875 50 42.5 50.625 42.5 51.25V57.5ZM57.5 57.5H45V51.25C45 49.2188 43.2812 47.5 41.25 47.5H38.75C36.6406 47.5 35 49.2188 35 51.25V57.5H22.4219V22.5H57.5V57.5ZM28.4375 37.5H31.4844C31.9531 37.5 32.5 37.0312 32.5 36.5625V33.5156C32.5 33.0469 31.9531 32.5 31.4844 32.5H28.4375C27.9688 32.5 27.5 33.0469 27.5 33.5156V36.5625C27.5 37.0312 27.9688 37.5 28.4375 37.5ZM30.5469 49.8438L31.7969 50C32.1094 50.0781 32.4219 49.8438 32.5 49.5312C33.2812 46.1719 36.4062 43.75 40 43.75C43.5156 43.75 46.6406 46.1719 47.4219 49.5312C47.5 49.8438 47.8125 50.0781 48.125 50L49.375 49.8438C49.7656 49.8438 50 49.4531 49.9219 49.1406C48.9844 44.6094 44.7656 41.25 40 41.25C35.1562 41.25 30.9375 44.6094 30 49.1406C29.9219 49.4531 30.1562 49.8438 30.5469 49.8438Z" fill="#6D218C"/>
</svg>
