<svg width="80" height="80" viewBox="0 0 80 80" fill="none" xmlns="http://www.w3.org/2000/svg">
<circle cx="40" cy="40" r="38.5" fill="white" stroke="#EC0080" stroke-width="3"/>
<path fill-rule="evenodd" clip-rule="evenodd" d="M20.0178 25.6858C19.9271 25.9231 20.1955 26.176 20.5429 26.1803C20.9918 26.1858 23.9961 27.2257 25.5757 27.9221C27.7711 28.8902 28.2955 29.2067 28.4033 29.6281C28.452 29.8187 30.0296 35.4928 31.9092 42.2373L35.3263 54.5L39.5064 54.4843L43.6865 54.4689L49.8419 40.124C53.2273 32.2346 55.9985 25.7237 56 25.6556C56.0014 25.5875 54.1412 25.5512 51.8663 25.5749L47.73 25.618L43.9352 35.3285C41.848 40.6692 40.1011 45.0782 40.0531 45.1263C40.0051 45.1743 39.1868 41.4218 38.2346 36.7873C37.2823 32.1528 36.3971 28.0278 36.2673 27.6206C36.0299 26.8756 35.497 26.2492 34.7521 25.8394C34.1381 25.5017 20.144 25.3558 20.0178 25.6858Z" fill="#6D218C"/>
</svg>
