<svg width="466" height="128" viewBox="0 0 466 128" fill="none" xmlns="http://www.w3.org/2000/svg">
<circle cx="177" cy="8" r="7.75" fill="white" stroke="black" stroke-width="0.5"/>
<circle cx="177" cy="45" r="8" fill="#BBBBBB"/>
<circle cx="177" cy="82" r="8" fill="#0C41A5"/>
<circle cx="177" cy="119" r="8" fill="#A8D40F"/>
<path d="M211.88 13L209.836 9.29H209.262V13H206.868V3.172H210.886C211.661 3.172 212.319 3.30733 212.86 3.578C213.411 3.84867 213.821 4.222 214.092 4.698C214.363 5.16467 214.498 5.68733 214.498 6.266C214.498 6.91933 214.311 7.50267 213.938 8.016C213.574 8.52933 213.033 8.89333 212.314 9.108L214.582 13H211.88ZM209.262 7.596H210.746C211.185 7.596 211.511 7.48867 211.726 7.274C211.95 7.05933 212.062 6.756 212.062 6.364C212.062 5.99067 211.95 5.69667 211.726 5.482C211.511 5.26733 211.185 5.16 210.746 5.16H209.262V7.596ZM223.435 10.144C223.435 10.6573 223.299 11.1333 223.029 11.572C222.767 12.0013 222.375 12.356 221.853 12.636C221.339 12.9067 220.728 13.056 220.019 13.084V14.218H219.123V13.07C218.133 12.986 217.335 12.692 216.729 12.188C216.122 11.6747 215.8 10.9793 215.763 10.102H218.311C218.367 10.662 218.637 11.0213 219.123 11.18V8.968C218.395 8.78133 217.811 8.59933 217.373 8.422C216.943 8.24467 216.565 7.96 216.239 7.568C215.912 7.176 215.749 6.63933 215.749 5.958C215.749 5.10867 216.061 4.42733 216.687 3.914C217.321 3.40067 218.133 3.11133 219.123 3.046V1.912H220.019V3.046C220.999 3.12067 221.773 3.40533 222.343 3.9C222.912 4.39467 223.229 5.08067 223.295 5.958H220.733C220.677 5.454 220.439 5.12733 220.019 4.978V7.148C220.793 7.36267 221.391 7.554 221.811 7.722C222.231 7.89 222.604 8.17 222.931 8.562C223.267 8.94467 223.435 9.472 223.435 10.144ZM218.283 5.846C218.283 6.07933 218.353 6.27533 218.493 6.434C218.642 6.59267 218.852 6.73267 219.123 6.854V4.908C218.861 4.95467 218.656 5.05733 218.507 5.216C218.357 5.36533 218.283 5.57533 218.283 5.846ZM220.019 11.222C220.299 11.1753 220.518 11.0633 220.677 10.886C220.845 10.7087 220.929 10.4893 220.929 10.228C220.929 9.98533 220.849 9.78933 220.691 9.64C220.541 9.48133 220.317 9.346 220.019 9.234V11.222ZM235.14 4.866H230.772V6.798C230.959 6.59267 231.22 6.42467 231.556 6.294C231.892 6.16333 232.256 6.098 232.648 6.098C233.348 6.098 233.927 6.25667 234.384 6.574C234.851 6.89133 235.192 7.302 235.406 7.806C235.621 8.31 235.728 8.856 235.728 9.444C235.728 10.536 235.42 11.404 234.804 12.048C234.188 12.6827 233.32 13 232.2 13C231.454 13 230.805 12.874 230.254 12.622C229.704 12.3607 229.279 12.0013 228.98 11.544C228.682 11.0867 228.518 10.5593 228.49 9.962H230.828C230.884 10.2513 231.02 10.494 231.234 10.69C231.449 10.8767 231.743 10.97 232.116 10.97C232.555 10.97 232.882 10.83 233.096 10.55C233.311 10.27 233.418 9.89667 233.418 9.43C233.418 8.97267 233.306 8.62267 233.082 8.38C232.858 8.13733 232.532 8.016 232.102 8.016C231.785 8.016 231.524 8.09533 231.318 8.254C231.113 8.40333 230.978 8.604 230.912 8.856H228.602V2.766H235.14V4.866ZM237.05 7.75C237.05 6.14467 237.358 4.88 237.974 3.956C238.599 3.032 239.603 2.57 240.984 2.57C242.365 2.57 243.364 3.032 243.98 3.956C244.605 4.88 244.918 6.14467 244.918 7.75C244.918 9.374 244.605 10.648 243.98 11.572C243.364 12.496 242.365 12.958 240.984 12.958C239.603 12.958 238.599 12.496 237.974 11.572C237.358 10.648 237.05 9.374 237.05 7.75ZM242.566 7.75C242.566 6.80733 242.463 6.084 242.258 5.58C242.053 5.06667 241.628 4.81 240.984 4.81C240.34 4.81 239.915 5.06667 239.71 5.58C239.505 6.084 239.402 6.80733 239.402 7.75C239.402 8.38467 239.439 8.912 239.514 9.332C239.589 9.74267 239.738 10.0787 239.962 10.34C240.195 10.592 240.536 10.718 240.984 10.718C241.432 10.718 241.768 10.592 241.992 10.34C242.225 10.0787 242.379 9.74267 242.454 9.332C242.529 8.912 242.566 8.38467 242.566 7.75ZM246.183 7.75C246.183 6.14467 246.491 4.88 247.107 3.956C247.732 3.032 248.735 2.57 250.117 2.57C251.498 2.57 252.497 3.032 253.113 3.956C253.738 4.88 254.051 6.14467 254.051 7.75C254.051 9.374 253.738 10.648 253.113 11.572C252.497 12.496 251.498 12.958 250.117 12.958C248.735 12.958 247.732 12.496 247.107 11.572C246.491 10.648 246.183 9.374 246.183 7.75ZM251.699 7.75C251.699 6.80733 251.596 6.084 251.391 5.58C251.185 5.06667 250.761 4.81 250.117 4.81C249.473 4.81 249.048 5.06667 248.843 5.58C248.637 6.084 248.535 6.80733 248.535 7.75C248.535 8.38467 248.572 8.912 248.647 9.332C248.721 9.74267 248.871 10.0787 249.095 10.34C249.328 10.592 249.669 10.718 250.117 10.718C250.565 10.718 250.901 10.592 251.125 10.34C251.358 10.0787 251.512 9.74267 251.587 9.332C251.661 8.912 251.699 8.38467 251.699 7.75ZM255.316 7.75C255.316 6.14467 255.624 4.88 256.24 3.956C256.865 3.032 257.868 2.57 259.25 2.57C260.631 2.57 261.63 3.032 262.246 3.956C262.871 4.88 263.184 6.14467 263.184 7.75C263.184 9.374 262.871 10.648 262.246 11.572C261.63 12.496 260.631 12.958 259.25 12.958C257.868 12.958 256.865 12.496 256.24 11.572C255.624 10.648 255.316 9.374 255.316 7.75ZM260.832 7.75C260.832 6.80733 260.729 6.084 260.524 5.58C260.318 5.06667 259.894 4.81 259.25 4.81C258.606 4.81 258.181 5.06667 257.976 5.58C257.77 6.084 257.668 6.80733 257.668 7.75C257.668 8.38467 257.705 8.912 257.78 9.332C257.854 9.74267 258.004 10.0787 258.228 10.34C258.461 10.592 258.802 10.718 259.25 10.718C259.698 10.718 260.034 10.592 260.258 10.34C260.491 10.0787 260.645 9.74267 260.72 9.332C260.794 8.912 260.832 8.38467 260.832 7.75ZM267.262 10.788L265.708 14.806H264.182L264.994 10.788H267.262ZM268.468 7.75C268.468 6.14467 268.776 4.88 269.392 3.956C270.017 3.032 271.021 2.57 272.402 2.57C273.783 2.57 274.782 3.032 275.398 3.956C276.023 4.88 276.336 6.14467 276.336 7.75C276.336 9.374 276.023 10.648 275.398 11.572C274.782 12.496 273.783 12.958 272.402 12.958C271.021 12.958 270.017 12.496 269.392 11.572C268.776 10.648 268.468 9.374 268.468 7.75ZM273.984 7.75C273.984 6.80733 273.881 6.084 273.676 5.58C273.471 5.06667 273.046 4.81 272.402 4.81C271.758 4.81 271.333 5.06667 271.128 5.58C270.923 6.084 270.82 6.80733 270.82 7.75C270.82 8.38467 270.857 8.912 270.932 9.332C271.007 9.74267 271.156 10.0787 271.38 10.34C271.613 10.592 271.954 10.718 272.402 10.718C272.85 10.718 273.186 10.592 273.41 10.34C273.643 10.0787 273.797 9.74267 273.872 9.332C273.947 8.912 273.984 8.38467 273.984 7.75ZM277.601 7.75C277.601 6.14467 277.909 4.88 278.525 3.956C279.15 3.032 280.153 2.57 281.535 2.57C282.916 2.57 283.915 3.032 284.531 3.956C285.156 4.88 285.469 6.14467 285.469 7.75C285.469 9.374 285.156 10.648 284.531 11.572C283.915 12.496 282.916 12.958 281.535 12.958C280.153 12.958 279.15 12.496 278.525 11.572C277.909 10.648 277.601 9.374 277.601 7.75ZM283.117 7.75C283.117 6.80733 283.014 6.084 282.809 5.58C282.603 5.06667 282.179 4.81 281.535 4.81C280.891 4.81 280.466 5.06667 280.261 5.58C280.055 6.084 279.953 6.80733 279.953 7.75C279.953 8.38467 279.99 8.912 280.065 9.332C280.139 9.74267 280.289 10.0787 280.513 10.34C280.746 10.592 281.087 10.718 281.535 10.718C281.983 10.718 282.319 10.592 282.543 10.34C282.776 10.0787 282.93 9.74267 283.005 9.332C283.079 8.912 283.117 8.38467 283.117 7.75ZM294.008 13.098C293.364 13.098 292.785 12.986 292.272 12.762C291.768 12.5287 291.371 12.2113 291.082 11.81C290.793 11.3993 290.643 10.928 290.634 10.396H291.992C292.039 10.8533 292.225 11.2407 292.552 11.558C292.888 11.866 293.373 12.02 294.008 12.02C294.615 12.02 295.091 11.8707 295.436 11.572C295.791 11.264 295.968 10.872 295.968 10.396C295.968 10.0227 295.865 9.71933 295.66 9.486C295.455 9.25267 295.198 9.07533 294.89 8.954C294.582 8.83267 294.167 8.702 293.644 8.562C293 8.394 292.482 8.226 292.09 8.058C291.707 7.89 291.376 7.62867 291.096 7.274C290.825 6.91 290.69 6.42467 290.69 5.818C290.69 5.286 290.825 4.81467 291.096 4.404C291.367 3.99333 291.745 3.676 292.23 3.452C292.725 3.228 293.289 3.116 293.924 3.116C294.839 3.116 295.585 3.34467 296.164 3.802C296.752 4.25933 297.083 4.866 297.158 5.622H295.758C295.711 5.24867 295.515 4.922 295.17 4.642C294.825 4.35267 294.367 4.208 293.798 4.208C293.266 4.208 292.832 4.348 292.496 4.628C292.16 4.89867 291.992 5.28133 291.992 5.776C291.992 6.13067 292.09 6.42 292.286 6.644C292.491 6.868 292.739 7.04067 293.028 7.162C293.327 7.274 293.742 7.40467 294.274 7.554C294.918 7.73133 295.436 7.90867 295.828 8.086C296.22 8.254 296.556 8.52 296.836 8.884C297.116 9.23867 297.256 9.724 297.256 10.34C297.256 10.816 297.13 11.264 296.878 11.684C296.626 12.104 296.253 12.4447 295.758 12.706C295.263 12.9673 294.68 13.098 294.008 13.098ZM298.655 9.136C298.655 8.352 298.813 7.666 299.131 7.078C299.448 6.48067 299.882 6.01867 300.433 5.692C300.993 5.36533 301.613 5.202 302.295 5.202C302.967 5.202 303.55 5.34667 304.045 5.636C304.539 5.92533 304.908 6.28933 305.151 6.728V5.328H306.439V13H305.151V11.572C304.899 12.02 304.521 12.3933 304.017 12.692C303.522 12.9813 302.943 13.126 302.281 13.126C301.599 13.126 300.983 12.958 300.433 12.622C299.882 12.286 299.448 11.8147 299.131 11.208C298.813 10.6013 298.655 9.91067 298.655 9.136ZM305.151 9.15C305.151 8.57133 305.034 8.06733 304.801 7.638C304.567 7.20867 304.25 6.882 303.849 6.658C303.457 6.42467 303.023 6.308 302.547 6.308C302.071 6.308 301.637 6.42 301.245 6.644C300.853 6.868 300.54 7.19467 300.307 7.624C300.073 8.05333 299.957 8.55733 299.957 9.136C299.957 9.724 300.073 10.2373 300.307 10.676C300.54 11.1053 300.853 11.4367 301.245 11.67C301.637 11.894 302.071 12.006 302.547 12.006C303.023 12.006 303.457 11.894 303.849 11.67C304.25 11.4367 304.567 11.1053 304.801 10.676C305.034 10.2373 305.151 9.72867 305.151 9.15ZM309.866 2.64V13H308.592V2.64H309.866ZM311.561 9.136C311.561 8.352 311.72 7.666 312.037 7.078C312.354 6.48067 312.788 6.01867 313.339 5.692C313.899 5.36533 314.524 5.202 315.215 5.202C315.812 5.202 316.368 5.342 316.881 5.622C317.394 5.89267 317.786 6.252 318.057 6.7V2.64H319.345V13H318.057V11.558C317.805 12.0153 317.432 12.3933 316.937 12.692C316.442 12.9813 315.864 13.126 315.201 13.126C314.52 13.126 313.899 12.958 313.339 12.622C312.788 12.286 312.354 11.8147 312.037 11.208C311.72 10.6013 311.561 9.91067 311.561 9.136ZM318.057 9.15C318.057 8.57133 317.94 8.06733 317.707 7.638C317.474 7.20867 317.156 6.882 316.755 6.658C316.363 6.42467 315.929 6.308 315.453 6.308C314.977 6.308 314.543 6.42 314.151 6.644C313.759 6.868 313.446 7.19467 313.213 7.624C312.98 8.05333 312.863 8.55733 312.863 9.136C312.863 9.724 312.98 10.2373 313.213 10.676C313.446 11.1053 313.759 11.4367 314.151 11.67C314.543 11.894 314.977 12.006 315.453 12.006C315.929 12.006 316.363 11.894 316.755 11.67C317.156 11.4367 317.474 11.1053 317.707 10.676C317.94 10.2373 318.057 9.72867 318.057 9.15ZM324.844 13.126C324.125 13.126 323.472 12.9627 322.884 12.636C322.305 12.3093 321.848 11.8473 321.512 11.25C321.185 10.6433 321.022 9.94333 321.022 9.15C321.022 8.366 321.19 7.67533 321.526 7.078C321.871 6.47133 322.338 6.00933 322.926 5.692C323.514 5.36533 324.172 5.202 324.9 5.202C325.628 5.202 326.286 5.36533 326.874 5.692C327.462 6.00933 327.924 6.46667 328.26 7.064C328.605 7.66133 328.778 8.35667 328.778 9.15C328.778 9.94333 328.601 10.6433 328.246 11.25C327.901 11.8473 327.429 12.3093 326.832 12.636C326.235 12.9627 325.572 13.126 324.844 13.126ZM324.844 12.006C325.301 12.006 325.731 11.8987 326.132 11.684C326.533 11.4693 326.855 11.1473 327.098 10.718C327.35 10.2887 327.476 9.766 327.476 9.15C327.476 8.534 327.355 8.01133 327.112 7.582C326.869 7.15267 326.552 6.83533 326.16 6.63C325.768 6.41533 325.343 6.308 324.886 6.308C324.419 6.308 323.99 6.41533 323.598 6.63C323.215 6.83533 322.907 7.15267 322.674 7.582C322.441 8.01133 322.324 8.534 322.324 9.15C322.324 9.77533 322.436 10.3027 322.66 10.732C322.893 11.1613 323.201 11.4833 323.584 11.698C323.967 11.9033 324.387 12.006 324.844 12.006ZM333.709 9.136C333.709 8.352 333.868 7.666 334.185 7.078C334.503 6.48067 334.937 6.01867 335.487 5.692C336.047 5.36533 336.668 5.202 337.349 5.202C338.021 5.202 338.605 5.34667 339.099 5.636C339.594 5.92533 339.963 6.28933 340.205 6.728V5.328H341.493V13H340.205V11.572C339.953 12.02 339.575 12.3933 339.071 12.692C338.577 12.9813 337.998 13.126 337.335 13.126C336.654 13.126 336.038 12.958 335.487 12.622C334.937 12.286 334.503 11.8147 334.185 11.208C333.868 10.6013 333.709 9.91067 333.709 9.136ZM340.205 9.15C340.205 8.57133 340.089 8.06733 339.855 7.638C339.622 7.20867 339.305 6.882 338.903 6.658C338.511 6.42467 338.077 6.308 337.601 6.308C337.125 6.308 336.691 6.42 336.299 6.644C335.907 6.868 335.595 7.19467 335.361 7.624C335.128 8.05333 335.011 8.55733 335.011 9.136C335.011 9.724 335.128 10.2373 335.361 10.676C335.595 11.1053 335.907 11.4367 336.299 11.67C336.691 11.894 337.125 12.006 337.601 12.006C338.077 12.006 338.511 11.894 338.903 11.67C339.305 11.4367 339.622 11.1053 339.855 10.676C340.089 10.2373 340.205 9.72867 340.205 9.15ZM347.384 5.188C348.318 5.188 349.074 5.47267 349.652 6.042C350.231 6.602 350.52 7.414 350.52 8.478V13H349.26V8.66C349.26 7.89467 349.069 7.31133 348.686 6.91C348.304 6.49933 347.781 6.294 347.118 6.294C346.446 6.294 345.91 6.504 345.508 6.924C345.116 7.344 344.92 7.95533 344.92 8.758V13H343.646V5.328H344.92V6.42C345.172 6.028 345.513 5.72467 345.942 5.51C346.381 5.29533 346.862 5.188 347.384 5.188ZM354.155 6.378V10.9C354.155 11.2733 354.235 11.5393 354.393 11.698C354.552 11.8473 354.827 11.922 355.219 11.922H356.157V13H355.009C354.3 13 353.768 12.8367 353.413 12.51C353.059 12.1833 352.881 11.6467 352.881 10.9V6.378H351.887V5.328H352.881V3.396H354.155V5.328H356.157V6.378H354.155ZM364.701 8.87C364.701 9.11267 364.687 9.36933 364.659 9.64H358.527C358.574 10.396 358.83 10.9887 359.297 11.418C359.773 11.838 360.347 12.048 361.019 12.048C361.57 12.048 362.027 11.922 362.391 11.67C362.764 11.4087 363.026 11.0633 363.175 10.634H364.547C364.342 11.3713 363.931 11.9733 363.315 12.44C362.699 12.8973 361.934 13.126 361.019 13.126C360.291 13.126 359.638 12.9627 359.059 12.636C358.49 12.3093 358.042 11.8473 357.715 11.25C357.388 10.6433 357.225 9.94333 357.225 9.15C357.225 8.35667 357.384 7.66133 357.701 7.064C358.018 6.46667 358.462 6.00933 359.031 5.692C359.61 5.36533 360.272 5.202 361.019 5.202C361.747 5.202 362.391 5.36067 362.951 5.678C363.511 5.99533 363.94 6.434 364.239 6.994C364.547 7.54467 364.701 8.17 364.701 8.87ZM363.385 8.604C363.385 8.11867 363.278 7.70333 363.063 7.358C362.848 7.00333 362.554 6.73733 362.181 6.56C361.817 6.37333 361.411 6.28 360.963 6.28C360.319 6.28 359.768 6.48533 359.311 6.896C358.863 7.30667 358.606 7.876 358.541 8.604H363.385ZM367.657 6.574C367.881 6.13533 368.198 5.79467 368.609 5.552C369.029 5.30933 369.537 5.188 370.135 5.188V6.504H369.799C368.371 6.504 367.657 7.27867 367.657 8.828V13H366.383V5.328H367.657V6.574ZM372.263 4.082C372.021 4.082 371.815 3.998 371.647 3.83C371.479 3.662 371.395 3.45667 371.395 3.214C371.395 2.97133 371.479 2.766 371.647 2.598C371.815 2.43 372.021 2.346 372.263 2.346C372.497 2.346 372.693 2.43 372.851 2.598C373.019 2.766 373.103 2.97133 373.103 3.214C373.103 3.45667 373.019 3.662 372.851 3.83C372.693 3.998 372.497 4.082 372.263 4.082ZM372.879 5.328V13H371.605V5.328H372.879ZM378.397 13.126C377.678 13.126 377.025 12.9627 376.437 12.636C375.858 12.3093 375.401 11.8473 375.065 11.25C374.738 10.6433 374.575 9.94333 374.575 9.15C374.575 8.366 374.743 7.67533 375.079 7.078C375.424 6.47133 375.891 6.00933 376.479 5.692C377.067 5.36533 377.725 5.202 378.453 5.202C379.181 5.202 379.839 5.36533 380.427 5.692C381.015 6.00933 381.477 6.46667 381.813 7.064C382.158 7.66133 382.331 8.35667 382.331 9.15C382.331 9.94333 382.153 10.6433 381.799 11.25C381.453 11.8473 380.982 12.3093 380.385 12.636C379.787 12.9627 379.125 13.126 378.397 13.126ZM378.397 12.006C378.854 12.006 379.283 11.8987 379.685 11.684C380.086 11.4693 380.408 11.1473 380.651 10.718C380.903 10.2887 381.029 9.766 381.029 9.15C381.029 8.534 380.907 8.01133 380.665 7.582C380.422 7.15267 380.105 6.83533 379.713 6.63C379.321 6.41533 378.896 6.308 378.439 6.308C377.972 6.308 377.543 6.41533 377.151 6.63C376.768 6.83533 376.46 7.15267 376.227 7.582C375.993 8.01133 375.877 8.534 375.877 9.15C375.877 9.77533 375.989 10.3027 376.213 10.732C376.446 11.1613 376.754 11.4833 377.137 11.698C377.519 11.9033 377.939 12.006 378.397 12.006ZM385.28 6.574C385.504 6.13533 385.821 5.79467 386.232 5.552C386.652 5.30933 387.16 5.188 387.758 5.188V6.504H387.422C385.994 6.504 385.28 7.27867 385.28 8.828V13H384.006V5.328H385.28V6.574Z" fill="#1C1C1C"/>
<path d="M211.88 50L209.836 46.29H209.262V50H206.868V40.172H210.886C211.661 40.172 212.319 40.3073 212.86 40.578C213.411 40.8487 213.821 41.222 214.092 41.698C214.363 42.1647 214.498 42.6873 214.498 43.266C214.498 43.9193 214.311 44.5027 213.938 45.016C213.574 45.5293 213.033 45.8933 212.314 46.108L214.582 50H211.88ZM209.262 44.596H210.746C211.185 44.596 211.511 44.4887 211.726 44.274C211.95 44.0593 212.062 43.756 212.062 43.364C212.062 42.9907 211.95 42.6967 211.726 42.482C211.511 42.2673 211.185 42.16 210.746 42.16H209.262V44.596ZM223.435 47.144C223.435 47.6573 223.299 48.1333 223.029 48.572C222.767 49.0013 222.375 49.356 221.853 49.636C221.339 49.9067 220.728 50.056 220.019 50.084V51.218H219.123V50.07C218.133 49.986 217.335 49.692 216.729 49.188C216.122 48.6747 215.8 47.9793 215.763 47.102H218.311C218.367 47.662 218.637 48.0213 219.123 48.18V45.968C218.395 45.7813 217.811 45.5993 217.373 45.422C216.943 45.2447 216.565 44.96 216.239 44.568C215.912 44.176 215.749 43.6393 215.749 42.958C215.749 42.1087 216.061 41.4273 216.687 40.914C217.321 40.4007 218.133 40.1113 219.123 40.046V38.912H220.019V40.046C220.999 40.1207 221.773 40.4053 222.343 40.9C222.912 41.3947 223.229 42.0807 223.295 42.958H220.733C220.677 42.454 220.439 42.1273 220.019 41.978V44.148C220.793 44.3627 221.391 44.554 221.811 44.722C222.231 44.89 222.604 45.17 222.931 45.562C223.267 45.9447 223.435 46.472 223.435 47.144ZM218.283 42.846C218.283 43.0793 218.353 43.2753 218.493 43.434C218.642 43.5927 218.852 43.7327 219.123 43.854V41.908C218.861 41.9547 218.656 42.0573 218.507 42.216C218.357 42.3653 218.283 42.5753 218.283 42.846ZM220.019 48.222C220.299 48.1753 220.518 48.0633 220.677 47.886C220.845 47.7087 220.929 47.4893 220.929 47.228C220.929 46.9853 220.849 46.7893 220.691 46.64C220.541 46.4813 220.317 46.346 220.019 46.234V48.222ZM232.998 42.538C232.924 42.1927 232.793 41.936 232.606 41.768C232.42 41.5907 232.154 41.502 231.808 41.502C231.276 41.502 230.894 41.7353 230.66 42.202C230.427 42.6593 230.306 43.3873 230.296 44.386C230.502 44.0593 230.796 43.8027 231.178 43.616C231.57 43.4293 232 43.336 232.466 43.336C233.381 43.336 234.114 43.6253 234.664 44.204C235.224 44.7827 235.504 45.59 235.504 46.626C235.504 47.3073 235.364 47.9047 235.084 48.418C234.814 48.9313 234.412 49.3327 233.88 49.622C233.358 49.9113 232.737 50.056 232.018 50.056C230.581 50.056 229.582 49.608 229.022 48.712C228.462 47.8067 228.182 46.5093 228.182 44.82C228.182 43.0467 228.476 41.7307 229.064 40.872C229.662 40.004 230.614 39.57 231.92 39.57C232.62 39.57 233.208 39.71 233.684 39.99C234.17 40.2607 234.534 40.62 234.776 41.068C235.028 41.516 235.178 42.006 235.224 42.538H232.998ZM231.892 45.226C231.491 45.226 231.155 45.3473 230.884 45.59C230.623 45.8233 230.492 46.1593 230.492 46.598C230.492 47.046 230.614 47.396 230.856 47.648C231.108 47.9 231.463 48.026 231.92 48.026C232.331 48.026 232.653 47.9047 232.886 47.662C233.129 47.41 233.25 47.0693 233.25 46.64C233.25 46.2013 233.134 45.856 232.9 45.604C232.667 45.352 232.331 45.226 231.892 45.226ZM236.607 42.006V39.78H240.485V50H237.993V42.006H236.607ZM242.122 44.75C242.122 43.1447 242.43 41.88 243.046 40.956C243.672 40.032 244.675 39.57 246.056 39.57C247.438 39.57 248.436 40.032 249.052 40.956C249.678 41.88 249.99 43.1447 249.99 44.75C249.99 46.374 249.678 47.648 249.052 48.572C248.436 49.496 247.438 49.958 246.056 49.958C244.675 49.958 243.672 49.496 243.046 48.572C242.43 47.648 242.122 46.374 242.122 44.75ZM247.638 44.75C247.638 43.8073 247.536 43.084 247.33 42.58C247.125 42.0667 246.7 41.81 246.056 41.81C245.412 41.81 244.988 42.0667 244.782 42.58C244.577 43.084 244.474 43.8073 244.474 44.75C244.474 45.3847 244.512 45.912 244.586 46.332C244.661 46.7427 244.81 47.0787 245.034 47.34C245.268 47.592 245.608 47.718 246.056 47.718C246.504 47.718 246.84 47.592 247.064 47.34C247.298 47.0787 247.452 46.7427 247.526 46.332C247.601 45.912 247.638 45.3847 247.638 44.75ZM254.069 47.788L252.515 51.806H250.989L251.801 47.788H254.069ZM255.275 44.75C255.275 43.1447 255.583 41.88 256.199 40.956C256.824 40.032 257.827 39.57 259.209 39.57C260.59 39.57 261.589 40.032 262.205 40.956C262.83 41.88 263.143 43.1447 263.143 44.75C263.143 46.374 262.83 47.648 262.205 48.572C261.589 49.496 260.59 49.958 259.209 49.958C257.827 49.958 256.824 49.496 256.199 48.572C255.583 47.648 255.275 46.374 255.275 44.75ZM260.791 44.75C260.791 43.8073 260.688 43.084 260.483 42.58C260.277 42.0667 259.853 41.81 259.209 41.81C258.565 41.81 258.14 42.0667 257.935 42.58C257.729 43.084 257.627 43.8073 257.627 44.75C257.627 45.3847 257.664 45.912 257.739 46.332C257.813 46.7427 257.963 47.0787 258.187 47.34C258.42 47.592 258.761 47.718 259.209 47.718C259.657 47.718 259.993 47.592 260.217 47.34C260.45 47.0787 260.604 46.7427 260.679 46.332C260.753 45.912 260.791 45.3847 260.791 44.75ZM264.407 44.75C264.407 43.1447 264.715 41.88 265.331 40.956C265.957 40.032 266.96 39.57 268.341 39.57C269.723 39.57 270.721 40.032 271.337 40.956C271.963 41.88 272.275 43.1447 272.275 44.75C272.275 46.374 271.963 47.648 271.337 48.572C270.721 49.496 269.723 49.958 268.341 49.958C266.96 49.958 265.957 49.496 265.331 48.572C264.715 47.648 264.407 46.374 264.407 44.75ZM269.923 44.75C269.923 43.8073 269.821 43.084 269.615 42.58C269.41 42.0667 268.985 41.81 268.341 41.81C267.697 41.81 267.273 42.0667 267.067 42.58C266.862 43.084 266.759 43.8073 266.759 44.75C266.759 45.3847 266.797 45.912 266.871 46.332C266.946 46.7427 267.095 47.0787 267.319 47.34C267.553 47.592 267.893 47.718 268.341 47.718C268.789 47.718 269.125 47.592 269.349 47.34C269.583 47.0787 269.737 46.7427 269.811 46.332C269.886 45.912 269.923 45.3847 269.923 44.75ZM284.525 42.328V50H283.251V48.866C283.008 49.258 282.667 49.566 282.229 49.79C281.799 50.0047 281.323 50.112 280.801 50.112C280.203 50.112 279.667 49.9907 279.191 49.748C278.715 49.496 278.337 49.1227 278.057 48.628C277.786 48.1333 277.651 47.5313 277.651 46.822V42.328H278.911V46.654C278.911 47.41 279.102 47.9933 279.485 48.404C279.867 48.8053 280.39 49.006 281.053 49.006C281.734 49.006 282.271 48.796 282.663 48.376C283.055 47.956 283.251 47.3447 283.251 46.542V42.328H284.525ZM288.23 43.378V47.9C288.23 48.2733 288.309 48.5393 288.468 48.698C288.626 48.8473 288.902 48.922 289.294 48.922H290.232V50H289.084C288.374 50 287.842 49.8367 287.488 49.51C287.133 49.1833 286.956 48.6467 286.956 47.9V43.378H285.962V42.328H286.956V40.396H288.23V42.328H290.232V43.378H288.23ZM292.433 41.082C292.191 41.082 291.985 40.998 291.817 40.83C291.649 40.662 291.565 40.4567 291.565 40.214C291.565 39.9713 291.649 39.766 291.817 39.598C291.985 39.43 292.191 39.346 292.433 39.346C292.667 39.346 292.863 39.43 293.021 39.598C293.189 39.766 293.273 39.9713 293.273 40.214C293.273 40.4567 293.189 40.662 293.021 40.83C292.863 40.998 292.667 41.082 292.433 41.082ZM293.049 42.328V50H291.775V42.328H293.049ZM296.495 39.64V50H295.221V39.64H296.495ZM299.324 41.082C299.081 41.082 298.876 40.998 298.708 40.83C298.54 40.662 298.456 40.4567 298.456 40.214C298.456 39.9713 298.54 39.766 298.708 39.598C298.876 39.43 299.081 39.346 299.324 39.346C299.557 39.346 299.753 39.43 299.912 39.598C300.08 39.766 300.164 39.9713 300.164 40.214C300.164 40.4567 300.08 40.662 299.912 40.83C299.753 40.998 299.557 41.082 299.324 41.082ZM299.94 42.328V50H298.666V42.328H299.94ZM303.063 48.95H306.829V50H301.607V48.95L305.331 43.364H301.635V42.328H306.801V43.364L303.063 48.95ZM308.006 46.136C308.006 45.352 308.165 44.666 308.482 44.078C308.8 43.4807 309.234 43.0187 309.784 42.692C310.344 42.3653 310.965 42.202 311.646 42.202C312.318 42.202 312.902 42.3467 313.396 42.636C313.891 42.9253 314.26 43.2893 314.502 43.728V42.328H315.79V50H314.502V48.572C314.25 49.02 313.872 49.3933 313.368 49.692C312.874 49.9813 312.295 50.126 311.632 50.126C310.951 50.126 310.335 49.958 309.784 49.622C309.234 49.286 308.8 48.8147 308.482 48.208C308.165 47.6013 308.006 46.9107 308.006 46.136ZM314.502 46.15C314.502 45.5713 314.386 45.0673 314.152 44.638C313.919 44.2087 313.602 43.882 313.2 43.658C312.808 43.4247 312.374 43.308 311.898 43.308C311.422 43.308 310.988 43.42 310.596 43.644C310.204 43.868 309.892 44.1947 309.658 44.624C309.425 45.0533 309.308 45.5573 309.308 46.136C309.308 46.724 309.425 47.2373 309.658 47.676C309.892 48.1053 310.204 48.4367 310.596 48.67C310.988 48.894 311.422 49.006 311.898 49.006C312.374 49.006 312.808 48.894 313.2 48.67C313.602 48.4367 313.919 48.1053 314.152 47.676C314.386 47.2373 314.502 46.7287 314.502 46.15ZM317.467 46.136C317.467 45.352 317.626 44.666 317.943 44.078C318.261 43.4807 318.695 43.0187 319.245 42.692C319.805 42.3653 320.431 42.202 321.121 42.202C321.719 42.202 322.274 42.342 322.787 42.622C323.301 42.8927 323.693 43.252 323.963 43.7V39.64H325.251V50H323.963V48.558C323.711 49.0153 323.338 49.3933 322.843 49.692C322.349 49.9813 321.77 50.126 321.107 50.126C320.426 50.126 319.805 49.958 319.245 49.622C318.695 49.286 318.261 48.8147 317.943 48.208C317.626 47.6013 317.467 46.9107 317.467 46.136ZM323.963 46.15C323.963 45.5713 323.847 45.0673 323.613 44.638C323.38 44.2087 323.063 43.882 322.661 43.658C322.269 43.4247 321.835 43.308 321.359 43.308C320.883 43.308 320.449 43.42 320.057 43.644C319.665 43.868 319.353 44.1947 319.119 44.624C318.886 45.0533 318.769 45.5573 318.769 46.136C318.769 46.724 318.886 47.2373 319.119 47.676C319.353 48.1053 319.665 48.4367 320.057 48.67C320.449 48.894 320.883 49.006 321.359 49.006C321.835 49.006 322.269 48.894 322.661 48.67C323.063 48.4367 323.38 48.1053 323.613 47.676C323.847 47.2373 323.963 46.7287 323.963 46.15ZM330.75 50.126C330.032 50.126 329.378 49.9627 328.79 49.636C328.212 49.3093 327.754 48.8473 327.418 48.25C327.092 47.6433 326.928 46.9433 326.928 46.15C326.928 45.366 327.096 44.6753 327.432 44.078C327.778 43.4713 328.244 43.0093 328.832 42.692C329.42 42.3653 330.078 42.202 330.806 42.202C331.534 42.202 332.192 42.3653 332.78 42.692C333.368 43.0093 333.83 43.4667 334.166 44.064C334.512 44.6613 334.684 45.3567 334.684 46.15C334.684 46.9433 334.507 47.6433 334.152 48.25C333.807 48.8473 333.336 49.3093 332.738 49.636C332.141 49.9627 331.478 50.126 330.75 50.126ZM330.75 49.006C331.208 49.006 331.637 48.8987 332.038 48.684C332.44 48.4693 332.762 48.1473 333.004 47.718C333.256 47.2887 333.382 46.766 333.382 46.15C333.382 45.534 333.261 45.0113 333.018 44.582C332.776 44.1527 332.458 43.8353 332.066 43.63C331.674 43.4153 331.25 43.308 330.792 43.308C330.326 43.308 329.896 43.4153 329.504 43.63C329.122 43.8353 328.814 44.1527 328.58 44.582C328.347 45.0113 328.23 45.534 328.23 46.15C328.23 46.7753 328.342 47.3027 328.566 47.732C328.8 48.1613 329.108 48.4833 329.49 48.698C329.873 48.9033 330.293 49.006 330.75 49.006ZM339.075 50.126C338.487 50.126 337.96 50.028 337.493 49.832C337.027 49.6267 336.658 49.3467 336.387 48.992C336.117 48.628 335.967 48.2127 335.939 47.746H337.255C337.293 48.1287 337.47 48.4413 337.787 48.684C338.114 48.9267 338.539 49.048 339.061 49.048C339.547 49.048 339.929 48.9407 340.209 48.726C340.489 48.5113 340.629 48.2407 340.629 47.914C340.629 47.578 340.48 47.3307 340.181 47.172C339.883 47.004 339.421 46.8407 338.795 46.682C338.226 46.5327 337.759 46.3833 337.395 46.234C337.041 46.0753 336.733 45.8467 336.471 45.548C336.219 45.24 336.093 44.8387 336.093 44.344C336.093 43.952 336.21 43.5927 336.443 43.266C336.677 42.9393 337.008 42.6827 337.437 42.496C337.867 42.3 338.357 42.202 338.907 42.202C339.757 42.202 340.443 42.4167 340.965 42.846C341.488 43.2753 341.768 43.8633 341.805 44.61H340.531C340.503 44.2087 340.34 43.8867 340.041 43.644C339.752 43.4013 339.36 43.28 338.865 43.28C338.408 43.28 338.044 43.378 337.773 43.574C337.503 43.77 337.367 44.0267 337.367 44.344C337.367 44.596 337.447 44.806 337.605 44.974C337.773 45.1327 337.979 45.2633 338.221 45.366C338.473 45.4593 338.819 45.5667 339.257 45.688C339.808 45.8373 340.256 45.9867 340.601 46.136C340.947 46.276 341.241 46.4907 341.483 46.78C341.735 47.0693 341.866 47.4473 341.875 47.914C341.875 48.334 341.759 48.712 341.525 49.048C341.292 49.384 340.961 49.65 340.531 49.846C340.111 50.0327 339.626 50.126 339.075 50.126Z" fill="#1C1C1C"/>
<path d="M211.88 87L209.836 83.29H209.262V87H206.868V77.172H210.886C211.661 77.172 212.319 77.3073 212.86 77.578C213.411 77.8487 213.821 78.222 214.092 78.698C214.363 79.1647 214.498 79.6873 214.498 80.266C214.498 80.9193 214.311 81.5027 213.938 82.016C213.574 82.5293 213.033 82.8933 212.314 83.108L214.582 87H211.88ZM209.262 81.596H210.746C211.185 81.596 211.511 81.4887 211.726 81.274C211.95 81.0593 212.062 80.756 212.062 80.364C212.062 79.9907 211.95 79.6967 211.726 79.482C211.511 79.2673 211.185 79.16 210.746 79.16H209.262V81.596ZM223.435 84.144C223.435 84.6573 223.299 85.1333 223.029 85.572C222.767 86.0013 222.375 86.356 221.853 86.636C221.339 86.9067 220.728 87.056 220.019 87.084V88.218H219.123V87.07C218.133 86.986 217.335 86.692 216.729 86.188C216.122 85.6747 215.8 84.9793 215.763 84.102H218.311C218.367 84.662 218.637 85.0213 219.123 85.18V82.968C218.395 82.7813 217.811 82.5993 217.373 82.422C216.943 82.2447 216.565 81.96 216.239 81.568C215.912 81.176 215.749 80.6393 215.749 79.958C215.749 79.1087 216.061 78.4273 216.687 77.914C217.321 77.4007 218.133 77.1113 219.123 77.046V75.912H220.019V77.046C220.999 77.1207 221.773 77.4053 222.343 77.9C222.912 78.3947 223.229 79.0807 223.295 79.958H220.733C220.677 79.454 220.439 79.1273 220.019 78.978V81.148C220.793 81.3627 221.391 81.554 221.811 81.722C222.231 81.89 222.604 82.17 222.931 82.562C223.267 82.9447 223.435 83.472 223.435 84.144ZM218.283 79.846C218.283 80.0793 218.353 80.2753 218.493 80.434C218.642 80.5927 218.852 80.7327 219.123 80.854V78.908C218.861 78.9547 218.656 79.0573 218.507 79.216C218.357 79.3653 218.283 79.5753 218.283 79.846ZM220.019 85.222C220.299 85.1753 220.518 85.0633 220.677 84.886C220.845 84.7087 220.929 84.4893 220.929 84.228C220.929 83.9853 220.849 83.7893 220.691 83.64C220.541 83.4813 220.317 83.346 220.019 83.234V85.222ZM228 85.18V83.248L232.424 76.92H235.098V83.108H236.246V85.18H235.098V87H232.704V85.18H228ZM232.872 79.552L230.52 83.108H232.872V79.552ZM237.503 79.664C237.54 78.6653 237.867 77.8953 238.483 77.354C239.099 76.8127 239.934 76.542 240.989 76.542C241.689 76.542 242.286 76.6633 242.781 76.906C243.285 77.1487 243.663 77.48 243.915 77.9C244.176 78.32 244.307 78.7913 244.307 79.314C244.307 79.93 244.153 80.434 243.845 80.826C243.537 81.2087 243.178 81.47 242.767 81.61V81.666C243.299 81.8433 243.719 82.1373 244.027 82.548C244.335 82.9587 244.489 83.486 244.489 84.13C244.489 84.7087 244.354 85.222 244.083 85.67C243.822 86.1087 243.434 86.454 242.921 86.706C242.417 86.958 241.815 87.084 241.115 87.084C239.995 87.084 239.099 86.8087 238.427 86.258C237.764 85.7073 237.414 84.8767 237.377 83.766H239.701C239.71 84.1767 239.827 84.5033 240.051 84.746C240.275 84.9793 240.602 85.096 241.031 85.096C241.395 85.096 241.675 84.9933 241.871 84.788C242.076 84.5733 242.179 84.2933 242.179 83.948C242.179 83.5 242.034 83.178 241.745 82.982C241.465 82.7767 241.012 82.674 240.387 82.674H239.939V80.728H240.387C240.863 80.728 241.246 80.6487 241.535 80.49C241.834 80.322 241.983 80.028 241.983 79.608C241.983 79.272 241.89 79.0107 241.703 78.824C241.516 78.6373 241.26 78.544 240.933 78.544C240.578 78.544 240.312 78.6513 240.135 78.866C239.967 79.0807 239.869 79.3467 239.841 79.664H237.503ZM248.472 84.004C248.612 84.7413 249.041 85.11 249.76 85.11C250.254 85.11 250.604 84.8907 250.81 84.452C251.015 84.0133 251.118 83.2993 251.118 82.31C250.912 82.5993 250.632 82.8233 250.278 82.982C249.923 83.1407 249.526 83.22 249.088 83.22C248.49 83.22 247.958 83.0987 247.492 82.856C247.025 82.604 246.656 82.2353 246.386 81.75C246.124 81.2553 245.994 80.658 245.994 79.958C245.994 79.2673 246.134 78.6653 246.414 78.152C246.703 77.6387 247.109 77.242 247.632 76.962C248.164 76.682 248.789 76.542 249.508 76.542C250.889 76.542 251.855 76.9713 252.406 77.83C252.956 78.6887 253.232 79.9533 253.232 81.624C253.232 82.8373 253.12 83.8407 252.896 84.634C252.681 85.418 252.312 86.0153 251.79 86.426C251.276 86.8367 250.572 87.042 249.676 87.042C248.966 87.042 248.36 86.902 247.856 86.622C247.361 86.342 246.978 85.9733 246.708 85.516C246.446 85.0587 246.297 84.5547 246.26 84.004H248.472ZM249.634 81.33C250.026 81.33 250.338 81.2133 250.572 80.98C250.805 80.7373 250.922 80.4107 250.922 80C250.922 79.552 250.8 79.2067 250.558 78.964C250.315 78.7213 249.988 78.6 249.578 78.6C249.167 78.6 248.84 78.726 248.598 78.978C248.364 79.2207 248.248 79.5567 248.248 79.986C248.248 80.3873 248.364 80.714 248.598 80.966C248.84 81.2087 249.186 81.33 249.634 81.33ZM254.509 81.75C254.509 80.1447 254.817 78.88 255.433 77.956C256.058 77.032 257.062 76.57 258.443 76.57C259.824 76.57 260.823 77.032 261.439 77.956C262.064 78.88 262.377 80.1447 262.377 81.75C262.377 83.374 262.064 84.648 261.439 85.572C260.823 86.496 259.824 86.958 258.443 86.958C257.062 86.958 256.058 86.496 255.433 85.572C254.817 84.648 254.509 83.374 254.509 81.75ZM260.025 81.75C260.025 80.8073 259.922 80.084 259.717 79.58C259.512 79.0667 259.087 78.81 258.443 78.81C257.799 78.81 257.374 79.0667 257.169 79.58C256.964 80.084 256.861 80.8073 256.861 81.75C256.861 82.3847 256.898 82.912 256.973 83.332C257.048 83.7427 257.197 84.0787 257.421 84.34C257.654 84.592 257.995 84.718 258.443 84.718C258.891 84.718 259.227 84.592 259.451 84.34C259.684 84.0787 259.838 83.7427 259.913 83.332C259.988 82.912 260.025 82.3847 260.025 81.75ZM266.456 84.788L264.902 88.806H263.376L264.188 84.788H266.456ZM267.661 81.75C267.661 80.1447 267.969 78.88 268.585 77.956C269.211 77.032 270.214 76.57 271.595 76.57C272.977 76.57 273.975 77.032 274.591 77.956C275.217 78.88 275.529 80.1447 275.529 81.75C275.529 83.374 275.217 84.648 274.591 85.572C273.975 86.496 272.977 86.958 271.595 86.958C270.214 86.958 269.211 86.496 268.585 85.572C267.969 84.648 267.661 83.374 267.661 81.75ZM273.177 81.75C273.177 80.8073 273.075 80.084 272.869 79.58C272.664 79.0667 272.239 78.81 271.595 78.81C270.951 78.81 270.527 79.0667 270.321 79.58C270.116 80.084 270.013 80.8073 270.013 81.75C270.013 82.3847 270.051 82.912 270.125 83.332C270.2 83.7427 270.349 84.0787 270.573 84.34C270.807 84.592 271.147 84.718 271.595 84.718C272.043 84.718 272.379 84.592 272.603 84.34C272.837 84.0787 272.991 83.7427 273.065 83.332C273.14 82.912 273.177 82.3847 273.177 81.75ZM276.794 81.75C276.794 80.1447 277.102 78.88 277.718 77.956C278.343 77.032 279.347 76.57 280.728 76.57C282.109 76.57 283.108 77.032 283.724 77.956C284.349 78.88 284.662 80.1447 284.662 81.75C284.662 83.374 284.349 84.648 283.724 85.572C283.108 86.496 282.109 86.958 280.728 86.958C279.347 86.958 278.343 86.496 277.718 85.572C277.102 84.648 276.794 83.374 276.794 81.75ZM282.31 81.75C282.31 80.8073 282.207 80.084 282.002 79.58C281.797 79.0667 281.372 78.81 280.728 78.81C280.084 78.81 279.659 79.0667 279.454 79.58C279.249 80.084 279.146 80.8073 279.146 81.75C279.146 82.3847 279.183 82.912 279.258 83.332C279.333 83.7427 279.482 84.0787 279.706 84.34C279.939 84.592 280.28 84.718 280.728 84.718C281.176 84.718 281.512 84.592 281.736 84.34C281.969 84.0787 282.123 83.7427 282.198 83.332C282.273 82.912 282.31 82.3847 282.31 81.75ZM293.201 87.098C292.557 87.098 291.979 86.986 291.465 86.762C290.961 86.5287 290.565 86.2113 290.275 85.81C289.986 85.3993 289.837 84.928 289.827 84.396H291.185C291.232 84.8533 291.419 85.2407 291.745 85.558C292.081 85.866 292.567 86.02 293.201 86.02C293.808 86.02 294.284 85.8707 294.629 85.572C294.984 85.264 295.161 84.872 295.161 84.396C295.161 84.0227 295.059 83.7193 294.853 83.486C294.648 83.2527 294.391 83.0753 294.083 82.954C293.775 82.8327 293.36 82.702 292.837 82.562C292.193 82.394 291.675 82.226 291.283 82.058C290.901 81.89 290.569 81.6287 290.289 81.274C290.019 80.91 289.883 80.4247 289.883 79.818C289.883 79.286 290.019 78.8147 290.289 78.404C290.56 77.9933 290.938 77.676 291.423 77.452C291.918 77.228 292.483 77.116 293.117 77.116C294.032 77.116 294.779 77.3447 295.357 77.802C295.945 78.2593 296.277 78.866 296.351 79.622H294.951C294.905 79.2487 294.709 78.922 294.363 78.642C294.018 78.3527 293.561 78.208 292.991 78.208C292.459 78.208 292.025 78.348 291.689 78.628C291.353 78.8987 291.185 79.2813 291.185 79.776C291.185 80.1307 291.283 80.42 291.479 80.644C291.685 80.868 291.932 81.0407 292.221 81.162C292.52 81.274 292.935 81.4047 293.467 81.554C294.111 81.7313 294.629 81.9087 295.021 82.086C295.413 82.254 295.749 82.52 296.029 82.884C296.309 83.2387 296.449 83.724 296.449 84.34C296.449 84.816 296.323 85.264 296.071 85.684C295.819 86.104 295.446 86.4447 294.951 86.706C294.457 86.9673 293.873 87.098 293.201 87.098ZM297.848 83.136C297.848 82.352 298.007 81.666 298.324 81.078C298.641 80.4807 299.075 80.0187 299.626 79.692C300.186 79.3653 300.807 79.202 301.488 79.202C302.16 79.202 302.743 79.3467 303.238 79.636C303.733 79.9253 304.101 80.2893 304.344 80.728V79.328H305.632V87H304.344V85.572C304.092 86.02 303.714 86.3933 303.21 86.692C302.715 86.9813 302.137 87.126 301.474 87.126C300.793 87.126 300.177 86.958 299.626 86.622C299.075 86.286 298.641 85.8147 298.324 85.208C298.007 84.6013 297.848 83.9107 297.848 83.136ZM304.344 83.15C304.344 82.5713 304.227 82.0673 303.994 81.638C303.761 81.2087 303.443 80.882 303.042 80.658C302.65 80.4247 302.216 80.308 301.74 80.308C301.264 80.308 300.83 80.42 300.438 80.644C300.046 80.868 299.733 81.1947 299.5 81.624C299.267 82.0533 299.15 82.5573 299.15 83.136C299.15 83.724 299.267 84.2373 299.5 84.676C299.733 85.1053 300.046 85.4367 300.438 85.67C300.83 85.894 301.264 86.006 301.74 86.006C302.216 86.006 302.65 85.894 303.042 85.67C303.443 85.4367 303.761 85.1053 303.994 84.676C304.227 84.2373 304.344 83.7287 304.344 83.15ZM309.059 76.64V87H307.785V76.64H309.059ZM310.754 83.136C310.754 82.352 310.913 81.666 311.23 81.078C311.548 80.4807 311.982 80.0187 312.532 79.692C313.092 79.3653 313.718 79.202 314.408 79.202C315.006 79.202 315.561 79.342 316.074 79.622C316.588 79.8927 316.98 80.252 317.25 80.7V76.64H318.538V87H317.25V85.558C316.998 86.0153 316.625 86.3933 316.13 86.692C315.636 86.9813 315.057 87.126 314.394 87.126C313.713 87.126 313.092 86.958 312.532 86.622C311.982 86.286 311.548 85.8147 311.23 85.208C310.913 84.6013 310.754 83.9107 310.754 83.136ZM317.25 83.15C317.25 82.5713 317.134 82.0673 316.9 81.638C316.667 81.2087 316.35 80.882 315.948 80.658C315.556 80.4247 315.122 80.308 314.646 80.308C314.17 80.308 313.736 80.42 313.344 80.644C312.952 80.868 312.64 81.1947 312.406 81.624C312.173 82.0533 312.056 82.5573 312.056 83.136C312.056 83.724 312.173 84.2373 312.406 84.676C312.64 85.1053 312.952 85.4367 313.344 85.67C313.736 85.894 314.17 86.006 314.646 86.006C315.122 86.006 315.556 85.894 315.948 85.67C316.35 85.4367 316.667 85.1053 316.9 84.676C317.134 84.2373 317.25 83.7287 317.25 83.15ZM324.037 87.126C323.319 87.126 322.665 86.9627 322.077 86.636C321.499 86.3093 321.041 85.8473 320.705 85.25C320.379 84.6433 320.215 83.9433 320.215 83.15C320.215 82.366 320.383 81.6753 320.719 81.078C321.065 80.4713 321.531 80.0093 322.119 79.692C322.707 79.3653 323.365 79.202 324.093 79.202C324.821 79.202 325.479 79.3653 326.067 79.692C326.655 80.0093 327.117 80.4667 327.453 81.064C327.799 81.6613 327.971 82.3567 327.971 83.15C327.971 83.9433 327.794 84.6433 327.439 85.25C327.094 85.8473 326.623 86.3093 326.025 86.636C325.428 86.9627 324.765 87.126 324.037 87.126ZM324.037 86.006C324.495 86.006 324.924 85.8987 325.325 85.684C325.727 85.4693 326.049 85.1473 326.291 84.718C326.543 84.2887 326.669 83.766 326.669 83.15C326.669 82.534 326.548 82.0113 326.305 81.582C326.063 81.1527 325.745 80.8353 325.353 80.63C324.961 80.4153 324.537 80.308 324.079 80.308C323.613 80.308 323.183 80.4153 322.791 80.63C322.409 80.8353 322.101 81.1527 321.867 81.582C321.634 82.0113 321.517 82.534 321.517 83.15C321.517 83.7753 321.629 84.3027 321.853 84.732C322.087 85.1613 322.395 85.4833 322.777 85.698C323.16 85.9033 323.58 86.006 324.037 86.006ZM332.903 83.136C332.903 82.352 333.061 81.666 333.379 81.078C333.696 80.4807 334.13 80.0187 334.681 79.692C335.241 79.3653 335.861 79.202 336.543 79.202C337.215 79.202 337.798 79.3467 338.293 79.636C338.787 79.9253 339.156 80.2893 339.399 80.728V79.328H340.687V87H339.399V85.572C339.147 86.02 338.769 86.3933 338.265 86.692C337.77 86.9813 337.191 87.126 336.529 87.126C335.847 87.126 335.231 86.958 334.681 86.622C334.13 86.286 333.696 85.8147 333.379 85.208C333.061 84.6013 332.903 83.9107 332.903 83.136ZM339.399 83.15C339.399 82.5713 339.282 82.0673 339.049 81.638C338.815 81.2087 338.498 80.882 338.097 80.658C337.705 80.4247 337.271 80.308 336.795 80.308C336.319 80.308 335.885 80.42 335.493 80.644C335.101 80.868 334.788 81.1947 334.555 81.624C334.321 82.0533 334.205 82.5573 334.205 83.136C334.205 83.724 334.321 84.2373 334.555 84.676C334.788 85.1053 335.101 85.4367 335.493 85.67C335.885 85.894 336.319 86.006 336.795 86.006C337.271 86.006 337.705 85.894 338.097 85.67C338.498 85.4367 338.815 85.1053 339.049 84.676C339.282 84.2373 339.399 83.7287 339.399 83.15ZM344.394 80.378V84.9C344.394 85.2733 344.473 85.5393 344.632 85.698C344.79 85.8473 345.066 85.922 345.458 85.922H346.396V87H345.248C344.538 87 344.006 86.8367 343.652 86.51C343.297 86.1833 343.12 85.6467 343.12 84.9V80.378H342.126V79.328H343.12V77.396H344.394V79.328H346.396V80.378H344.394ZM354.743 79.328V87H353.469V85.866C353.227 86.258 352.886 86.566 352.447 86.79C352.018 87.0047 351.542 87.112 351.019 87.112C350.422 87.112 349.885 86.9907 349.409 86.748C348.933 86.496 348.555 86.1227 348.275 85.628C348.005 85.1333 347.869 84.5313 347.869 83.822V79.328H349.129V83.654C349.129 84.41 349.321 84.9933 349.703 85.404C350.086 85.8053 350.609 86.006 351.271 86.006C351.953 86.006 352.489 85.796 352.881 85.376C353.273 84.956 353.469 84.3447 353.469 83.542V79.328H354.743ZM356.418 83.136C356.418 82.352 356.577 81.666 356.894 81.078C357.212 80.4807 357.646 80.0187 358.196 79.692C358.756 79.3653 359.377 79.202 360.058 79.202C360.73 79.202 361.314 79.3467 361.808 79.636C362.303 79.9253 362.672 80.2893 362.914 80.728V79.328H364.202V87H362.914V85.572C362.662 86.02 362.284 86.3933 361.78 86.692C361.286 86.9813 360.707 87.126 360.044 87.126C359.363 87.126 358.747 86.958 358.196 86.622C357.646 86.286 357.212 85.8147 356.894 85.208C356.577 84.6013 356.418 83.9107 356.418 83.136ZM362.914 83.15C362.914 82.5713 362.798 82.0673 362.564 81.638C362.331 81.2087 362.014 80.882 361.612 80.658C361.22 80.4247 360.786 80.308 360.31 80.308C359.834 80.308 359.4 80.42 359.008 80.644C358.616 80.868 358.304 81.1947 358.07 81.624C357.837 82.0533 357.72 82.5573 357.72 83.136C357.72 83.724 357.837 84.2373 358.07 84.676C358.304 85.1053 358.616 85.4367 359.008 85.67C359.4 85.894 359.834 86.006 360.31 86.006C360.786 86.006 361.22 85.894 361.612 85.67C362.014 85.4367 362.331 85.1053 362.564 84.676C362.798 84.2373 362.914 83.7287 362.914 83.15ZM367.629 76.64V87H366.355V76.64H367.629ZM373.057 83.136C373.057 82.352 373.216 81.666 373.533 81.078C373.85 80.4807 374.284 80.0187 374.835 79.692C375.395 79.3653 376.02 79.202 376.711 79.202C377.308 79.202 377.864 79.342 378.377 79.622C378.89 79.8927 379.282 80.252 379.553 80.7V76.64H380.841V87H379.553V85.558C379.301 86.0153 378.928 86.3933 378.433 86.692C377.938 86.9813 377.36 87.126 376.697 87.126C376.016 87.126 375.395 86.958 374.835 86.622C374.284 86.286 373.85 85.8147 373.533 85.208C373.216 84.6013 373.057 83.9107 373.057 83.136ZM379.553 83.15C379.553 82.5713 379.436 82.0673 379.203 81.638C378.97 81.2087 378.652 80.882 378.251 80.658C377.859 80.4247 377.425 80.308 376.949 80.308C376.473 80.308 376.039 80.42 375.647 80.644C375.255 80.868 374.942 81.1947 374.709 81.624C374.476 82.0533 374.359 82.5573 374.359 83.136C374.359 83.724 374.476 84.2373 374.709 84.676C374.942 85.1053 375.255 85.4367 375.647 85.67C376.039 85.894 376.473 86.006 376.949 86.006C377.425 86.006 377.859 85.894 378.251 85.67C378.652 85.4367 378.97 85.1053 379.203 84.676C379.436 84.2373 379.553 83.7287 379.553 83.15ZM389.994 82.87C389.994 83.1127 389.98 83.3693 389.952 83.64H383.82C383.867 84.396 384.123 84.9887 384.59 85.418C385.066 85.838 385.64 86.048 386.312 86.048C386.863 86.048 387.32 85.922 387.684 85.67C388.057 85.4087 388.319 85.0633 388.468 84.634H389.84C389.635 85.3713 389.224 85.9733 388.608 86.44C387.992 86.8973 387.227 87.126 386.312 87.126C385.584 87.126 384.931 86.9627 384.352 86.636C383.783 86.3093 383.335 85.8473 383.008 85.25C382.681 84.6433 382.518 83.9433 382.518 83.15C382.518 82.3567 382.677 81.6613 382.994 81.064C383.311 80.4667 383.755 80.0093 384.324 79.692C384.903 79.3653 385.565 79.202 386.312 79.202C387.04 79.202 387.684 79.3607 388.244 79.678C388.804 79.9953 389.233 80.434 389.532 80.994C389.84 81.5447 389.994 82.17 389.994 82.87ZM388.678 82.604C388.678 82.1187 388.571 81.7033 388.356 81.358C388.141 81.0033 387.847 80.7373 387.474 80.56C387.11 80.3733 386.704 80.28 386.256 80.28C385.612 80.28 385.061 80.4853 384.604 80.896C384.156 81.3067 383.899 81.876 383.834 82.604H388.678ZM394.932 82.114C394.932 81.162 395.147 80.308 395.576 79.552C396.005 78.7867 396.589 78.1893 397.326 77.76C398.073 77.3307 398.899 77.116 399.804 77.116C400.868 77.116 401.797 77.3727 402.59 77.886C403.383 78.3993 403.962 79.1273 404.326 80.07H402.8C402.529 79.482 402.137 79.0293 401.624 78.712C401.12 78.3947 400.513 78.236 399.804 78.236C399.123 78.236 398.511 78.3947 397.97 78.712C397.429 79.0293 397.004 79.482 396.696 80.07C396.388 80.6487 396.234 81.33 396.234 82.114C396.234 82.8887 396.388 83.57 396.696 84.158C397.004 84.7367 397.429 85.1847 397.97 85.502C398.511 85.8193 399.123 85.978 399.804 85.978C400.513 85.978 401.12 85.824 401.624 85.516C402.137 85.1987 402.529 84.746 402.8 84.158H404.326C403.962 85.0913 403.383 85.8147 402.59 86.328C401.797 86.832 400.868 87.084 399.804 87.084C398.899 87.084 398.073 86.874 397.326 86.454C396.589 86.0247 396.005 85.432 395.576 84.676C395.147 83.92 394.932 83.066 394.932 82.114ZM405.747 83.136C405.747 82.352 405.905 81.666 406.223 81.078C406.54 80.4807 406.974 80.0187 407.525 79.692C408.085 79.3653 408.705 79.202 409.387 79.202C410.059 79.202 410.642 79.3467 411.137 79.636C411.631 79.9253 412 80.2893 412.243 80.728V79.328H413.531V87H412.243V85.572C411.991 86.02 411.613 86.3933 411.109 86.692C410.614 86.9813 410.035 87.126 409.373 87.126C408.691 87.126 408.075 86.958 407.525 86.622C406.974 86.286 406.54 85.8147 406.223 85.208C405.905 84.6013 405.747 83.9107 405.747 83.136ZM412.243 83.15C412.243 82.5713 412.126 82.0673 411.893 81.638C411.659 81.2087 411.342 80.882 410.941 80.658C410.549 80.4247 410.115 80.308 409.639 80.308C409.163 80.308 408.729 80.42 408.337 80.644C407.945 80.868 407.632 81.1947 407.399 81.624C407.165 82.0533 407.049 82.5573 407.049 83.136C407.049 83.724 407.165 84.2373 407.399 84.676C407.632 85.1053 407.945 85.4367 408.337 85.67C408.729 85.894 409.163 86.006 409.639 86.006C410.115 86.006 410.549 85.894 410.941 85.67C411.342 85.4367 411.659 85.1053 411.893 84.676C412.126 84.2373 412.243 83.7287 412.243 83.15ZM418.399 87.126C417.811 87.126 417.284 87.028 416.817 86.832C416.351 86.6267 415.982 86.3467 415.711 85.992C415.441 85.628 415.291 85.2127 415.263 84.746H416.579C416.617 85.1287 416.794 85.4413 417.111 85.684C417.438 85.9267 417.863 86.048 418.385 86.048C418.871 86.048 419.253 85.9407 419.533 85.726C419.813 85.5113 419.953 85.2407 419.953 84.914C419.953 84.578 419.804 84.3307 419.505 84.172C419.207 84.004 418.745 83.8407 418.119 83.682C417.55 83.5327 417.083 83.3833 416.719 83.234C416.365 83.0753 416.057 82.8467 415.795 82.548C415.543 82.24 415.417 81.8387 415.417 81.344C415.417 80.952 415.534 80.5927 415.767 80.266C416.001 79.9393 416.332 79.6827 416.761 79.496C417.191 79.3 417.681 79.202 418.231 79.202C419.081 79.202 419.767 79.4167 420.289 79.846C420.812 80.2753 421.092 80.8633 421.129 81.61H419.855C419.827 81.2087 419.664 80.8867 419.365 80.644C419.076 80.4013 418.684 80.28 418.189 80.28C417.732 80.28 417.368 80.378 417.097 80.574C416.827 80.77 416.691 81.0267 416.691 81.344C416.691 81.596 416.771 81.806 416.929 81.974C417.097 82.1327 417.303 82.2633 417.545 82.366C417.797 82.4593 418.143 82.5667 418.581 82.688C419.132 82.8373 419.58 82.9867 419.925 83.136C420.271 83.276 420.565 83.4907 420.807 83.78C421.059 84.0693 421.19 84.4473 421.199 84.914C421.199 85.334 421.083 85.712 420.849 86.048C420.616 86.384 420.285 86.65 419.855 86.846C419.435 87.0327 418.95 87.126 418.399 87.126ZM426.806 79.188C427.385 79.188 427.907 79.314 428.374 79.566C428.841 79.8087 429.205 80.1773 429.466 80.672C429.737 81.1667 429.872 81.7687 429.872 82.478V87H428.612V82.66C428.612 81.8947 428.421 81.3113 428.038 80.91C427.655 80.4993 427.133 80.294 426.47 80.294C425.798 80.294 425.261 80.504 424.86 80.924C424.468 81.344 424.272 81.9553 424.272 82.758V87H422.998V76.64H424.272V80.42C424.524 80.028 424.869 79.7247 425.308 79.51C425.756 79.2953 426.255 79.188 426.806 79.188ZM433.227 80.756C433.488 80.2987 433.871 79.9253 434.375 79.636C434.879 79.3467 435.453 79.202 436.097 79.202C436.788 79.202 437.408 79.3653 437.959 79.692C438.51 80.0187 438.944 80.4807 439.261 81.078C439.578 81.666 439.737 82.352 439.737 83.136C439.737 83.9107 439.578 84.6013 439.261 85.208C438.944 85.8147 438.505 86.286 437.945 86.622C437.394 86.958 436.778 87.126 436.097 87.126C435.434 87.126 434.851 86.9813 434.347 86.692C433.852 86.4027 433.479 86.034 433.227 85.586V87H431.953V76.64H433.227V80.756ZM438.435 83.136C438.435 82.5573 438.318 82.0533 438.085 81.624C437.852 81.1947 437.534 80.868 437.133 80.644C436.741 80.42 436.307 80.308 435.831 80.308C435.364 80.308 434.93 80.4247 434.529 80.658C434.137 80.882 433.82 81.2133 433.577 81.652C433.344 82.0813 433.227 82.5807 433.227 83.15C433.227 83.7287 433.344 84.2373 433.577 84.676C433.82 85.1053 434.137 85.4367 434.529 85.67C434.93 85.894 435.364 86.006 435.831 86.006C436.307 86.006 436.741 85.894 437.133 85.67C437.534 85.4367 437.852 85.1053 438.085 84.676C438.318 84.2373 438.435 83.724 438.435 83.136ZM440.938 83.136C440.938 82.352 441.097 81.666 441.414 81.078C441.731 80.4807 442.165 80.0187 442.716 79.692C443.276 79.3653 443.897 79.202 444.578 79.202C445.25 79.202 445.833 79.3467 446.328 79.636C446.823 79.9253 447.191 80.2893 447.434 80.728V79.328H448.722V87H447.434V85.572C447.182 86.02 446.804 86.3933 446.3 86.692C445.805 86.9813 445.227 87.126 444.564 87.126C443.883 87.126 443.267 86.958 442.716 86.622C442.165 86.286 441.731 85.8147 441.414 85.208C441.097 84.6013 440.938 83.9107 440.938 83.136ZM447.434 83.15C447.434 82.5713 447.317 82.0673 447.084 81.638C446.851 81.2087 446.533 80.882 446.132 80.658C445.74 80.4247 445.306 80.308 444.83 80.308C444.354 80.308 443.92 80.42 443.528 80.644C443.136 80.868 442.823 81.1947 442.59 81.624C442.357 82.0533 442.24 82.5573 442.24 83.136C442.24 83.724 442.357 84.2373 442.59 84.676C442.823 85.1053 443.136 85.4367 443.528 85.67C443.92 85.894 444.354 86.006 444.83 86.006C445.306 86.006 445.74 85.894 446.132 85.67C446.533 85.4367 446.851 85.1053 447.084 84.676C447.317 84.2373 447.434 83.7287 447.434 83.15ZM450.399 83.15C450.399 82.3567 450.558 81.666 450.875 81.078C451.192 80.4807 451.631 80.0187 452.191 79.692C452.76 79.3653 453.409 79.202 454.137 79.202C455.08 79.202 455.854 79.4307 456.461 79.888C457.077 80.3453 457.483 80.98 457.679 81.792H456.307C456.176 81.3253 455.92 80.9567 455.537 80.686C455.164 80.4153 454.697 80.28 454.137 80.28C453.409 80.28 452.821 80.532 452.373 81.036C451.925 81.5307 451.701 82.2353 451.701 83.15C451.701 84.074 451.925 84.788 452.373 85.292C452.821 85.796 453.409 86.048 454.137 86.048C454.697 86.048 455.164 85.9173 455.537 85.656C455.91 85.3947 456.167 85.0213 456.307 84.536H457.679C457.474 85.32 457.063 85.95 456.447 86.426C455.831 86.8927 455.061 87.126 454.137 87.126C453.409 87.126 452.76 86.9627 452.191 86.636C451.631 86.3093 451.192 85.8473 450.875 85.25C450.558 84.6527 450.399 83.9527 450.399 83.15ZM463.663 87L460.653 83.612V87H459.379V76.64H460.653V82.73L463.607 79.328H465.385L461.773 83.15L465.399 87H463.663Z" fill="#1C1C1C"/>
<path d="M211.88 124L209.836 120.29H209.262V124H206.868V114.172H210.886C211.661 114.172 212.319 114.307 212.86 114.578C213.411 114.849 213.821 115.222 214.092 115.698C214.363 116.165 214.498 116.687 214.498 117.266C214.498 117.919 214.311 118.503 213.938 119.016C213.574 119.529 213.033 119.893 212.314 120.108L214.582 124H211.88ZM209.262 118.596H210.746C211.185 118.596 211.511 118.489 211.726 118.274C211.95 118.059 212.062 117.756 212.062 117.364C212.062 116.991 211.95 116.697 211.726 116.482C211.511 116.267 211.185 116.16 210.746 116.16H209.262V118.596ZM223.435 121.144C223.435 121.657 223.299 122.133 223.029 122.572C222.767 123.001 222.375 123.356 221.853 123.636C221.339 123.907 220.728 124.056 220.019 124.084V125.218H219.123V124.07C218.133 123.986 217.335 123.692 216.729 123.188C216.122 122.675 215.8 121.979 215.763 121.102H218.311C218.367 121.662 218.637 122.021 219.123 122.18V119.968C218.395 119.781 217.811 119.599 217.373 119.422C216.943 119.245 216.565 118.96 216.239 118.568C215.912 118.176 215.749 117.639 215.749 116.958C215.749 116.109 216.061 115.427 216.687 114.914C217.321 114.401 218.133 114.111 219.123 114.046V112.912H220.019V114.046C220.999 114.121 221.773 114.405 222.343 114.9C222.912 115.395 223.229 116.081 223.295 116.958H220.733C220.677 116.454 220.439 116.127 220.019 115.978V118.148C220.793 118.363 221.391 118.554 221.811 118.722C222.231 118.89 222.604 119.17 222.931 119.562C223.267 119.945 223.435 120.472 223.435 121.144ZM218.283 116.846C218.283 117.079 218.353 117.275 218.493 117.434C218.642 117.593 218.852 117.733 219.123 117.854V115.908C218.861 115.955 218.656 116.057 218.507 116.216C218.357 116.365 218.283 116.575 218.283 116.846ZM220.019 122.222C220.299 122.175 220.518 122.063 220.677 121.886C220.845 121.709 220.929 121.489 220.929 121.228C220.929 120.985 220.849 120.789 220.691 120.64C220.541 120.481 220.317 120.346 220.019 120.234V122.222ZM227.692 116.006V113.78H231.57V124H229.078V116.006H227.692ZM232.956 116.006V113.78H236.834V124H234.342V116.006H232.956ZM238.472 118.75C238.472 117.145 238.78 115.88 239.396 114.956C240.021 114.032 241.024 113.57 242.406 113.57C243.787 113.57 244.786 114.032 245.402 114.956C246.027 115.88 246.34 117.145 246.34 118.75C246.34 120.374 246.027 121.648 245.402 122.572C244.786 123.496 243.787 123.958 242.406 123.958C241.024 123.958 240.021 123.496 239.396 122.572C238.78 121.648 238.472 120.374 238.472 118.75ZM243.988 118.75C243.988 117.807 243.885 117.084 243.68 116.58C243.474 116.067 243.05 115.81 242.406 115.81C241.762 115.81 241.337 116.067 241.132 116.58C240.926 117.084 240.824 117.807 240.824 118.75C240.824 119.385 240.861 119.912 240.936 120.332C241.01 120.743 241.16 121.079 241.384 121.34C241.617 121.592 241.958 121.718 242.406 121.718C242.854 121.718 243.19 121.592 243.414 121.34C243.647 121.079 243.801 120.743 243.876 120.332C243.95 119.912 243.988 119.385 243.988 118.75ZM250.419 121.788L248.865 125.806H247.339L248.151 121.788H250.419ZM251.624 118.75C251.624 117.145 251.932 115.88 252.548 114.956C253.173 114.032 254.177 113.57 255.558 113.57C256.939 113.57 257.938 114.032 258.554 114.956C259.179 115.88 259.492 117.145 259.492 118.75C259.492 120.374 259.179 121.648 258.554 122.572C257.938 123.496 256.939 123.958 255.558 123.958C254.177 123.958 253.173 123.496 252.548 122.572C251.932 121.648 251.624 120.374 251.624 118.75ZM257.14 118.75C257.14 117.807 257.037 117.084 256.832 116.58C256.627 116.067 256.202 115.81 255.558 115.81C254.914 115.81 254.489 116.067 254.284 116.58C254.079 117.084 253.976 117.807 253.976 118.75C253.976 119.385 254.013 119.912 254.088 120.332C254.163 120.743 254.312 121.079 254.536 121.34C254.769 121.592 255.11 121.718 255.558 121.718C256.006 121.718 256.342 121.592 256.566 121.34C256.799 121.079 256.953 120.743 257.028 120.332C257.103 119.912 257.14 119.385 257.14 118.75ZM260.757 118.75C260.757 117.145 261.065 115.88 261.681 114.956C262.306 114.032 263.31 113.57 264.691 113.57C266.072 113.57 267.071 114.032 267.687 114.956C268.312 115.88 268.625 117.145 268.625 118.75C268.625 120.374 268.312 121.648 267.687 122.572C267.071 123.496 266.072 123.958 264.691 123.958C263.31 123.958 262.306 123.496 261.681 122.572C261.065 121.648 260.757 120.374 260.757 118.75ZM266.273 118.75C266.273 117.807 266.17 117.084 265.965 116.58C265.76 116.067 265.335 115.81 264.691 115.81C264.047 115.81 263.622 116.067 263.417 116.58C263.212 117.084 263.109 117.807 263.109 118.75C263.109 119.385 263.146 119.912 263.221 120.332C263.296 120.743 263.445 121.079 263.669 121.34C263.902 121.592 264.243 121.718 264.691 121.718C265.139 121.718 265.475 121.592 265.699 121.34C265.932 121.079 266.086 120.743 266.161 120.332C266.236 119.912 266.273 119.385 266.273 118.75ZM275.344 117.574C275.568 117.135 275.886 116.795 276.296 116.552C276.716 116.309 277.225 116.188 277.822 116.188V117.504H277.486C276.058 117.504 275.344 118.279 275.344 119.828V124H274.07V116.328H275.344V117.574ZM286.293 119.87C286.293 120.113 286.279 120.369 286.251 120.64H280.119C280.166 121.396 280.422 121.989 280.889 122.418C281.365 122.838 281.939 123.048 282.611 123.048C283.162 123.048 283.619 122.922 283.983 122.67C284.356 122.409 284.618 122.063 284.767 121.634H286.139C285.934 122.371 285.523 122.973 284.907 123.44C284.291 123.897 283.526 124.126 282.611 124.126C281.883 124.126 281.23 123.963 280.651 123.636C280.082 123.309 279.634 122.847 279.307 122.25C278.98 121.643 278.817 120.943 278.817 120.15C278.817 119.357 278.976 118.661 279.293 118.064C279.61 117.467 280.054 117.009 280.623 116.692C281.202 116.365 281.864 116.202 282.611 116.202C283.339 116.202 283.983 116.361 284.543 116.678C285.103 116.995 285.532 117.434 285.831 117.994C286.139 118.545 286.293 119.17 286.293 119.87ZM284.977 119.604C284.977 119.119 284.87 118.703 284.655 118.358C284.44 118.003 284.146 117.737 283.773 117.56C283.409 117.373 283.003 117.28 282.555 117.28C281.911 117.28 281.36 117.485 280.903 117.896C280.455 118.307 280.198 118.876 280.133 119.604H284.977ZM287.498 120.136C287.498 119.352 287.657 118.666 287.974 118.078C288.292 117.481 288.726 117.019 289.276 116.692C289.836 116.365 290.457 116.202 291.138 116.202C291.81 116.202 292.394 116.347 292.888 116.636C293.383 116.925 293.752 117.289 293.994 117.728V116.328H295.282V124H293.994V122.572C293.742 123.02 293.364 123.393 292.86 123.692C292.366 123.981 291.787 124.126 291.124 124.126C290.443 124.126 289.827 123.958 289.276 123.622C288.726 123.286 288.292 122.815 287.974 122.208C287.657 121.601 287.498 120.911 287.498 120.136ZM293.994 120.15C293.994 119.571 293.878 119.067 293.644 118.638C293.411 118.209 293.094 117.882 292.692 117.658C292.3 117.425 291.866 117.308 291.39 117.308C290.914 117.308 290.48 117.42 290.088 117.644C289.696 117.868 289.384 118.195 289.15 118.624C288.917 119.053 288.8 119.557 288.8 120.136C288.8 120.724 288.917 121.237 289.15 121.676C289.384 122.105 289.696 122.437 290.088 122.67C290.48 122.894 290.914 123.006 291.39 123.006C291.866 123.006 292.3 122.894 292.692 122.67C293.094 122.437 293.411 122.105 293.644 121.676C293.878 121.237 293.994 120.729 293.994 120.15ZM298.093 115.082C297.851 115.082 297.645 114.998 297.477 114.83C297.309 114.662 297.225 114.457 297.225 114.214C297.225 113.971 297.309 113.766 297.477 113.598C297.645 113.43 297.851 113.346 298.093 113.346C298.327 113.346 298.523 113.43 298.681 113.598C298.849 113.766 298.933 113.971 298.933 114.214C298.933 114.457 298.849 114.662 298.681 114.83C298.523 114.998 298.327 115.082 298.093 115.082ZM298.709 116.328V124H297.435V116.328H298.709ZM303.597 124.126C303.009 124.126 302.481 124.028 302.015 123.832C301.548 123.627 301.179 123.347 300.909 122.992C300.638 122.628 300.489 122.213 300.461 121.746H301.777C301.814 122.129 301.991 122.441 302.309 122.684C302.635 122.927 303.06 123.048 303.583 123.048C304.068 123.048 304.451 122.941 304.731 122.726C305.011 122.511 305.151 122.241 305.151 121.914C305.151 121.578 305.001 121.331 304.703 121.172C304.404 121.004 303.942 120.841 303.317 120.682C302.747 120.533 302.281 120.383 301.917 120.234C301.562 120.075 301.254 119.847 300.993 119.548C300.741 119.24 300.615 118.839 300.615 118.344C300.615 117.952 300.731 117.593 300.965 117.266C301.198 116.939 301.529 116.683 301.959 116.496C302.388 116.3 302.878 116.202 303.429 116.202C304.278 116.202 304.964 116.417 305.487 116.846C306.009 117.275 306.289 117.863 306.327 118.61H305.053C305.025 118.209 304.861 117.887 304.563 117.644C304.273 117.401 303.881 117.28 303.387 117.28C302.929 117.28 302.565 117.378 302.295 117.574C302.024 117.77 301.889 118.027 301.889 118.344C301.889 118.596 301.968 118.806 302.127 118.974C302.295 119.133 302.5 119.263 302.743 119.366C302.995 119.459 303.34 119.567 303.779 119.688C304.329 119.837 304.777 119.987 305.123 120.136C305.468 120.276 305.762 120.491 306.005 120.78C306.257 121.069 306.387 121.447 306.397 121.914C306.397 122.334 306.28 122.712 306.047 123.048C305.813 123.384 305.482 123.65 305.053 123.846C304.633 124.033 304.147 124.126 303.597 124.126ZM311.452 120.136C311.452 119.352 311.61 118.666 311.928 118.078C312.245 117.481 312.679 117.019 313.23 116.692C313.79 116.365 314.41 116.202 315.092 116.202C315.764 116.202 316.347 116.347 316.842 116.636C317.336 116.925 317.705 117.289 317.948 117.728V116.328H319.236V124H317.948V122.572C317.696 123.02 317.318 123.393 316.814 123.692C316.319 123.981 315.74 124.126 315.078 124.126C314.396 124.126 313.78 123.958 313.23 123.622C312.679 123.286 312.245 122.815 311.928 122.208C311.61 121.601 311.452 120.911 311.452 120.136ZM317.948 120.15C317.948 119.571 317.831 119.067 317.598 118.638C317.364 118.209 317.047 117.882 316.646 117.658C316.254 117.425 315.82 117.308 315.344 117.308C314.868 117.308 314.434 117.42 314.042 117.644C313.65 117.868 313.337 118.195 313.104 118.624C312.87 119.053 312.754 119.557 312.754 120.136C312.754 120.724 312.87 121.237 313.104 121.676C313.337 122.105 313.65 122.437 314.042 122.67C314.434 122.894 314.868 123.006 315.344 123.006C315.82 123.006 316.254 122.894 316.646 122.67C317.047 122.437 317.364 122.105 317.598 121.676C317.831 121.237 317.948 120.729 317.948 120.15ZM327.837 124.126C327.249 124.126 326.722 124.028 326.255 123.832C325.788 123.627 325.42 123.347 325.149 122.992C324.878 122.628 324.729 122.213 324.701 121.746H326.017C326.054 122.129 326.232 122.441 326.549 122.684C326.876 122.927 327.3 123.048 327.823 123.048C328.308 123.048 328.691 122.941 328.971 122.726C329.251 122.511 329.391 122.241 329.391 121.914C329.391 121.578 329.242 121.331 328.943 121.172C328.644 121.004 328.182 120.841 327.557 120.682C326.988 120.533 326.521 120.383 326.157 120.234C325.802 120.075 325.494 119.847 325.233 119.548C324.981 119.24 324.855 118.839 324.855 118.344C324.855 117.952 324.972 117.593 325.205 117.266C325.438 116.939 325.77 116.683 326.199 116.496C326.628 116.3 327.118 116.202 327.669 116.202C328.518 116.202 329.204 116.417 329.727 116.846C330.25 117.275 330.53 117.863 330.567 118.61H329.293C329.265 118.209 329.102 117.887 328.803 117.644C328.514 117.401 328.122 117.28 327.627 117.28C327.17 117.28 326.806 117.378 326.535 117.574C326.264 117.77 326.129 118.027 326.129 118.344C326.129 118.596 326.208 118.806 326.367 118.974C326.535 119.133 326.74 119.263 326.983 119.366C327.235 119.459 327.58 119.567 328.019 119.688C328.57 119.837 329.018 119.987 329.363 120.136C329.708 120.276 330.002 120.491 330.245 120.78C330.497 121.069 330.628 121.447 330.637 121.914C330.637 122.334 330.52 122.712 330.287 123.048C330.054 123.384 329.722 123.65 329.293 123.846C328.873 124.033 328.388 124.126 327.837 124.126ZM339.435 119.87C339.435 120.113 339.421 120.369 339.393 120.64H333.261C333.308 121.396 333.565 121.989 334.031 122.418C334.507 122.838 335.081 123.048 335.753 123.048C336.304 123.048 336.761 122.922 337.125 122.67C337.499 122.409 337.76 122.063 337.909 121.634H339.281C339.076 122.371 338.665 122.973 338.049 123.44C337.433 123.897 336.668 124.126 335.753 124.126C335.025 124.126 334.372 123.963 333.793 123.636C333.224 123.309 332.776 122.847 332.449 122.25C332.123 121.643 331.959 120.943 331.959 120.15C331.959 119.357 332.118 118.661 332.435 118.064C332.753 117.467 333.196 117.009 333.765 116.692C334.344 116.365 335.007 116.202 335.753 116.202C336.481 116.202 337.125 116.361 337.685 116.678C338.245 116.995 338.675 117.434 338.973 117.994C339.281 118.545 339.435 119.17 339.435 119.87ZM338.119 119.604C338.119 119.119 338.012 118.703 337.797 118.358C337.583 118.003 337.289 117.737 336.915 117.56C336.551 117.373 336.145 117.28 335.697 117.28C335.053 117.28 334.503 117.485 334.045 117.896C333.597 118.307 333.341 118.876 333.275 119.604H338.119ZM342.391 117.574C342.615 117.135 342.932 116.795 343.343 116.552C343.763 116.309 344.272 116.188 344.869 116.188V117.504H344.533C343.105 117.504 342.391 118.279 342.391 119.828V124H341.117V116.328H342.391V117.574ZM353.34 119.87C353.34 120.113 353.326 120.369 353.298 120.64H347.166C347.212 121.396 347.469 121.989 347.936 122.418C348.412 122.838 348.986 123.048 349.658 123.048C350.208 123.048 350.666 122.922 351.03 122.67C351.403 122.409 351.664 122.063 351.814 121.634H353.186C352.98 122.371 352.57 122.973 351.954 123.44C351.338 123.897 350.572 124.126 349.658 124.126C348.93 124.126 348.276 123.963 347.698 123.636C347.128 123.309 346.68 122.847 346.354 122.25C346.027 121.643 345.864 120.943 345.864 120.15C345.864 119.357 346.022 118.661 346.34 118.064C346.657 117.467 347.1 117.009 347.67 116.692C348.248 116.365 348.911 116.202 349.658 116.202C350.386 116.202 351.03 116.361 351.59 116.678C352.15 116.995 352.579 117.434 352.878 117.994C353.186 118.545 353.34 119.17 353.34 119.87ZM352.024 119.604C352.024 119.119 351.916 118.703 351.702 118.358C351.487 118.003 351.193 117.737 350.82 117.56C350.456 117.373 350.05 117.28 349.602 117.28C348.958 117.28 348.407 117.485 347.95 117.896C347.502 118.307 347.245 118.876 347.18 119.604H352.024ZM364.247 116.188C364.845 116.188 365.377 116.314 365.843 116.566C366.31 116.809 366.679 117.177 366.949 117.672C367.22 118.167 367.355 118.769 367.355 119.478V124H366.095V119.66C366.095 118.895 365.904 118.311 365.521 117.91C365.148 117.499 364.639 117.294 363.995 117.294C363.333 117.294 362.805 117.509 362.413 117.938C362.021 118.358 361.825 118.969 361.825 119.772V124H360.565V119.66C360.565 118.895 360.374 118.311 359.991 117.91C359.618 117.499 359.109 117.294 358.465 117.294C357.803 117.294 357.275 117.509 356.883 117.938C356.491 118.358 356.295 118.969 356.295 119.772V124H355.021V116.328H356.295V117.434C356.547 117.033 356.883 116.725 357.303 116.51C357.733 116.295 358.204 116.188 358.717 116.188C359.361 116.188 359.931 116.333 360.425 116.622C360.92 116.911 361.289 117.336 361.531 117.896C361.746 117.355 362.101 116.935 362.595 116.636C363.09 116.337 363.641 116.188 364.247 116.188ZM374.452 117.574C374.676 117.135 374.993 116.795 375.404 116.552C375.824 116.309 376.332 116.188 376.93 116.188V117.504H376.594C375.166 117.504 374.452 118.279 374.452 119.828V124H373.178V116.328H374.452V117.574ZM385.4 119.87C385.4 120.113 385.386 120.369 385.358 120.64H379.226C379.273 121.396 379.53 121.989 379.996 122.418C380.472 122.838 381.046 123.048 381.718 123.048C382.269 123.048 382.726 122.922 383.09 122.67C383.464 122.409 383.725 122.063 383.874 121.634H385.246C385.041 122.371 384.63 122.973 384.014 123.44C383.398 123.897 382.633 124.126 381.718 124.126C380.99 124.126 380.337 123.963 379.758 123.636C379.189 123.309 378.741 122.847 378.414 122.25C378.088 121.643 377.924 120.943 377.924 120.15C377.924 119.357 378.083 118.661 378.4 118.064C378.718 117.467 379.161 117.009 379.73 116.692C380.309 116.365 380.972 116.202 381.718 116.202C382.446 116.202 383.09 116.361 383.65 116.678C384.21 116.995 384.64 117.434 384.938 117.994C385.246 118.545 385.4 119.17 385.4 119.87ZM384.084 119.604C384.084 119.119 383.977 118.703 383.762 118.358C383.548 118.003 383.254 117.737 382.88 117.56C382.516 117.373 382.11 117.28 381.662 117.28C381.018 117.28 380.468 117.485 380.01 117.896C379.562 118.307 379.306 118.876 379.24 119.604H384.084ZM389.798 124.126C389.21 124.126 388.683 124.028 388.216 123.832C387.749 123.627 387.381 123.347 387.11 122.992C386.839 122.628 386.69 122.213 386.662 121.746H387.978C388.015 122.129 388.193 122.441 388.51 122.684C388.837 122.927 389.261 123.048 389.784 123.048C390.269 123.048 390.652 122.941 390.932 122.726C391.212 122.511 391.352 122.241 391.352 121.914C391.352 121.578 391.203 121.331 390.904 121.172C390.605 121.004 390.143 120.841 389.518 120.682C388.949 120.533 388.482 120.383 388.118 120.234C387.763 120.075 387.455 119.847 387.194 119.548C386.942 119.24 386.816 118.839 386.816 118.344C386.816 117.952 386.933 117.593 387.166 117.266C387.399 116.939 387.731 116.683 388.16 116.496C388.589 116.3 389.079 116.202 389.63 116.202C390.479 116.202 391.165 116.417 391.688 116.846C392.211 117.275 392.491 117.863 392.528 118.61H391.254C391.226 118.209 391.063 117.887 390.764 117.644C390.475 117.401 390.083 117.28 389.588 117.28C389.131 117.28 388.767 117.378 388.496 117.574C388.225 117.77 388.09 118.027 388.09 118.344C388.09 118.596 388.169 118.806 388.328 118.974C388.496 119.133 388.701 119.263 388.944 119.366C389.196 119.459 389.541 119.567 389.98 119.688C390.531 119.837 390.979 119.987 391.324 120.136C391.669 120.276 391.963 120.491 392.206 120.78C392.458 121.069 392.589 121.447 392.598 121.914C392.598 122.334 392.481 122.712 392.248 123.048C392.015 123.384 391.683 123.65 391.254 123.846C390.834 124.033 390.349 124.126 389.798 124.126ZM397.56 116.202C398.223 116.202 398.802 116.347 399.296 116.636C399.8 116.925 400.174 117.289 400.416 117.728V116.328H401.704V124.168C401.704 124.868 401.555 125.489 401.256 126.03C400.958 126.581 400.528 127.01 399.968 127.318C399.418 127.626 398.774 127.78 398.036 127.78C397.028 127.78 396.188 127.542 395.516 127.066C394.844 126.59 394.448 125.941 394.326 125.12H395.586C395.726 125.587 396.016 125.96 396.454 126.24C396.893 126.529 397.42 126.674 398.036 126.674C398.736 126.674 399.306 126.455 399.744 126.016C400.192 125.577 400.416 124.961 400.416 124.168V122.558C400.164 123.006 399.791 123.379 399.296 123.678C398.802 123.977 398.223 124.126 397.56 124.126C396.879 124.126 396.258 123.958 395.698 123.622C395.148 123.286 394.714 122.815 394.396 122.208C394.079 121.601 393.92 120.911 393.92 120.136C393.92 119.352 394.079 118.666 394.396 118.078C394.714 117.481 395.148 117.019 395.698 116.692C396.258 116.365 396.879 116.202 397.56 116.202ZM400.416 120.15C400.416 119.571 400.3 119.067 400.066 118.638C399.833 118.209 399.516 117.882 399.114 117.658C398.722 117.425 398.288 117.308 397.812 117.308C397.336 117.308 396.902 117.42 396.51 117.644C396.118 117.868 395.806 118.195 395.572 118.624C395.339 119.053 395.222 119.557 395.222 120.136C395.222 120.724 395.339 121.237 395.572 121.676C395.806 122.105 396.118 122.437 396.51 122.67C396.902 122.894 397.336 123.006 397.812 123.006C398.288 123.006 398.722 122.894 399.114 122.67C399.516 122.437 399.833 122.105 400.066 121.676C400.3 121.237 400.416 120.729 400.416 120.15ZM403.381 120.136C403.381 119.352 403.54 118.666 403.857 118.078C404.175 117.481 404.609 117.019 405.159 116.692C405.719 116.365 406.34 116.202 407.021 116.202C407.693 116.202 408.277 116.347 408.771 116.636C409.266 116.925 409.635 117.289 409.877 117.728V116.328H411.165V124H409.877V122.572C409.625 123.02 409.247 123.393 408.743 123.692C408.249 123.981 407.67 124.126 407.007 124.126C406.326 124.126 405.71 123.958 405.159 123.622C404.609 123.286 404.175 122.815 403.857 122.208C403.54 121.601 403.381 120.911 403.381 120.136ZM409.877 120.15C409.877 119.571 409.761 119.067 409.527 118.638C409.294 118.209 408.977 117.882 408.575 117.658C408.183 117.425 407.749 117.308 407.273 117.308C406.797 117.308 406.363 117.42 405.971 117.644C405.579 117.868 405.267 118.195 405.033 118.624C404.8 119.053 404.683 119.557 404.683 120.136C404.683 120.724 404.8 121.237 405.033 121.676C405.267 122.105 405.579 122.437 405.971 122.67C406.363 122.894 406.797 123.006 407.273 123.006C407.749 123.006 408.183 122.894 408.575 122.67C408.977 122.437 409.294 122.105 409.527 121.676C409.761 121.237 409.877 120.729 409.877 120.15ZM414.872 117.378V121.9C414.872 122.273 414.952 122.539 415.11 122.698C415.269 122.847 415.544 122.922 415.936 122.922H416.874V124H415.726C415.017 124 414.485 123.837 414.13 123.51C413.776 123.183 413.598 122.647 413.598 121.9V117.378H412.604V116.328H413.598V114.396H414.872V116.328H416.874V117.378H414.872ZM417.942 120.136C417.942 119.352 418.101 118.666 418.418 118.078C418.735 117.481 419.169 117.019 419.72 116.692C420.28 116.365 420.901 116.202 421.582 116.202C422.254 116.202 422.837 116.347 423.332 116.636C423.827 116.925 424.195 117.289 424.438 117.728V116.328H425.726V124H424.438V122.572C424.186 123.02 423.808 123.393 423.304 123.692C422.809 123.981 422.231 124.126 421.568 124.126C420.887 124.126 420.271 123.958 419.72 123.622C419.169 123.286 418.735 122.815 418.418 122.208C418.101 121.601 417.942 120.911 417.942 120.136ZM424.438 120.15C424.438 119.571 424.321 119.067 424.088 118.638C423.855 118.209 423.537 117.882 423.136 117.658C422.744 117.425 422.31 117.308 421.834 117.308C421.358 117.308 420.924 117.42 420.532 117.644C420.14 117.868 419.827 118.195 419.594 118.624C419.361 119.053 419.244 119.557 419.244 120.136C419.244 120.724 419.361 121.237 419.594 121.676C419.827 122.105 420.14 122.437 420.532 122.67C420.924 122.894 421.358 123.006 421.834 123.006C422.31 123.006 422.744 122.894 423.136 122.67C423.537 122.437 423.855 122.105 424.088 121.676C424.321 121.237 424.438 120.729 424.438 120.15ZM427.403 120.136C427.403 119.352 427.561 118.666 427.879 118.078C428.196 117.481 428.63 117.019 429.181 116.692C429.741 116.365 430.366 116.202 431.057 116.202C431.654 116.202 432.209 116.342 432.723 116.622C433.236 116.893 433.628 117.252 433.899 117.7V113.64H435.187V124H433.899V122.558C433.647 123.015 433.273 123.393 432.779 123.692C432.284 123.981 431.705 124.126 431.043 124.126C430.361 124.126 429.741 123.958 429.181 123.622C428.63 123.286 428.196 122.815 427.879 122.208C427.561 121.601 427.403 120.911 427.403 120.136ZM433.899 120.15C433.899 119.571 433.782 119.067 433.549 118.638C433.315 118.209 432.998 117.882 432.597 117.658C432.205 117.425 431.771 117.308 431.295 117.308C430.819 117.308 430.385 117.42 429.993 117.644C429.601 117.868 429.288 118.195 429.055 118.624C428.821 119.053 428.705 119.557 428.705 120.136C428.705 120.724 428.821 121.237 429.055 121.676C429.288 122.105 429.601 122.437 429.993 122.67C430.385 122.894 430.819 123.006 431.295 123.006C431.771 123.006 432.205 122.894 432.597 122.67C432.998 122.437 433.315 122.105 433.549 121.676C433.782 121.237 433.899 120.729 433.899 120.15ZM440.686 124.126C439.967 124.126 439.314 123.963 438.726 123.636C438.147 123.309 437.69 122.847 437.354 122.25C437.027 121.643 436.864 120.943 436.864 120.15C436.864 119.366 437.032 118.675 437.368 118.078C437.713 117.471 438.18 117.009 438.768 116.692C439.356 116.365 440.014 116.202 440.742 116.202C441.47 116.202 442.128 116.365 442.716 116.692C443.304 117.009 443.766 117.467 444.102 118.064C444.447 118.661 444.62 119.357 444.62 120.15C444.62 120.943 444.442 121.643 444.088 122.25C443.742 122.847 443.271 123.309 442.674 123.636C442.076 123.963 441.414 124.126 440.686 124.126ZM440.686 123.006C441.143 123.006 441.572 122.899 441.974 122.684C442.375 122.469 442.697 122.147 442.94 121.718C443.192 121.289 443.318 120.766 443.318 120.15C443.318 119.534 443.196 119.011 442.954 118.582C442.711 118.153 442.394 117.835 442.002 117.63C441.61 117.415 441.185 117.308 440.728 117.308C440.261 117.308 439.832 117.415 439.44 117.63C439.057 117.835 438.749 118.153 438.516 118.582C438.282 119.011 438.166 119.534 438.166 120.15C438.166 120.775 438.278 121.303 438.502 121.732C438.735 122.161 439.043 122.483 439.426 122.698C439.808 122.903 440.228 123.006 440.686 123.006ZM449.011 124.126C448.423 124.126 447.895 124.028 447.429 123.832C446.962 123.627 446.593 123.347 446.323 122.992C446.052 122.628 445.903 122.213 445.875 121.746H447.191C447.228 122.129 447.405 122.441 447.723 122.684C448.049 122.927 448.474 123.048 448.997 123.048C449.482 123.048 449.865 122.941 450.145 122.726C450.425 122.511 450.565 122.241 450.565 121.914C450.565 121.578 450.415 121.331 450.117 121.172C449.818 121.004 449.356 120.841 448.731 120.682C448.161 120.533 447.695 120.383 447.331 120.234C446.976 120.075 446.668 119.847 446.407 119.548C446.155 119.24 446.029 118.839 446.029 118.344C446.029 117.952 446.145 117.593 446.379 117.266C446.612 116.939 446.943 116.683 447.373 116.496C447.802 116.3 448.292 116.202 448.843 116.202C449.692 116.202 450.378 116.417 450.901 116.846C451.423 117.275 451.703 117.863 451.741 118.61H450.467C450.439 118.209 450.275 117.887 449.977 117.644C449.687 117.401 449.295 117.28 448.801 117.28C448.343 117.28 447.979 117.378 447.709 117.574C447.438 117.77 447.303 118.027 447.303 118.344C447.303 118.596 447.382 118.806 447.541 118.974C447.709 119.133 447.914 119.263 448.157 119.366C448.409 119.459 448.754 119.567 449.193 119.688C449.743 119.837 450.191 119.987 450.537 120.136C450.882 120.276 451.176 120.491 451.419 120.78C451.671 121.069 451.801 121.447 451.811 121.914C451.811 122.334 451.694 122.712 451.461 123.048C451.227 123.384 450.896 123.65 450.467 123.846C450.047 124.033 449.561 124.126 449.011 124.126Z" fill="#1C1C1C"/>
<path d="M22.128 60.592V57.952L29.976 46.72H33.888V57.664H36V60.592H33.888V64H30.528V60.592H22.128ZM30.744 50.32L25.824 57.664H30.744V50.32ZM38.1872 51.112C38.2672 49.512 38.8272 48.28 39.8672 47.416C40.9232 46.536 42.3072 46.096 44.0192 46.096C45.1872 46.096 46.1872 46.304 47.0192 46.72C47.8512 47.12 48.4752 47.672 48.8912 48.376C49.3232 49.064 49.5392 49.848 49.5392 50.728C49.5392 51.736 49.2752 52.592 48.7472 53.296C48.2352 53.984 47.6192 54.448 46.8992 54.688V54.784C47.8272 55.072 48.5472 55.584 49.0592 56.32C49.5872 57.056 49.8512 58 49.8512 59.152C49.8512 60.112 49.6272 60.968 49.1792 61.72C48.7472 62.472 48.0992 63.064 47.2352 63.496C46.3872 63.912 45.3632 64.12 44.1632 64.12C42.3552 64.12 40.8832 63.664 39.7472 62.752C38.6112 61.84 38.0112 60.496 37.9472 58.72H41.2112C41.2432 59.504 41.5072 60.136 42.0032 60.616C42.5152 61.08 43.2112 61.312 44.0912 61.312C44.9072 61.312 45.5312 61.088 45.9632 60.64C46.4112 60.176 46.6352 59.584 46.6352 58.864C46.6352 57.904 46.3312 57.216 45.7232 56.8C45.1152 56.384 44.1712 56.176 42.8912 56.176H42.1952V53.416H42.8912C45.1632 53.416 46.2992 52.656 46.2992 51.136C46.2992 50.448 46.0912 49.912 45.6752 49.528C45.2752 49.144 44.6912 48.952 43.9232 48.952C43.1712 48.952 42.5872 49.16 42.1712 49.576C41.7712 49.976 41.5392 50.488 41.4752 51.112H38.1872ZM56.3944 59.08C56.5224 59.784 56.8104 60.328 57.2584 60.712C57.7224 61.08 58.3384 61.264 59.1064 61.264C60.0984 61.264 60.8184 60.856 61.2664 60.04C61.7144 59.208 61.9384 57.816 61.9384 55.864C61.5704 56.376 61.0504 56.776 60.3784 57.064C59.7224 57.352 59.0104 57.496 58.2424 57.496C57.2184 57.496 56.2904 57.288 55.4584 56.872C54.6424 56.44 53.9944 55.808 53.5144 54.976C53.0344 54.128 52.7944 53.104 52.7944 51.904C52.7944 50.128 53.3224 48.72 54.3784 47.68C55.4344 46.624 56.8744 46.096 58.6984 46.096C60.9704 46.096 62.5704 46.824 63.4984 48.28C64.4424 49.736 64.9144 51.928 64.9144 54.856C64.9144 56.936 64.7304 58.64 64.3624 59.968C64.0104 61.296 63.3944 62.304 62.5144 62.992C61.6504 63.68 60.4664 64.024 58.9624 64.024C57.7784 64.024 56.7704 63.8 55.9384 63.352C55.1064 62.888 54.4664 62.288 54.0184 61.552C53.5864 60.8 53.3384 59.976 53.2744 59.08H56.3944ZM58.9384 54.76C59.7704 54.76 60.4264 54.504 60.9064 53.992C61.3864 53.48 61.6264 52.792 61.6264 51.928C61.6264 50.984 61.3704 50.256 60.8584 49.744C60.3624 49.216 59.6824 48.952 58.8184 48.952C57.9544 48.952 57.2664 49.224 56.7544 49.768C56.2584 50.296 56.0104 51 56.0104 51.88C56.0104 52.728 56.2504 53.424 56.7304 53.968C57.2264 54.496 57.9624 54.76 58.9384 54.76ZM67.5298 55.024C67.5298 52.256 68.0258 50.088 69.0178 48.52C70.0258 46.952 71.6898 46.168 74.0098 46.168C76.3298 46.168 77.9858 46.952 78.9778 48.52C79.9858 50.088 80.4898 52.256 80.4898 55.024C80.4898 57.808 79.9858 59.992 78.9778 61.576C77.9858 63.16 76.3298 63.952 74.0098 63.952C71.6898 63.952 70.0258 63.16 69.0178 61.576C68.0258 59.992 67.5298 57.808 67.5298 55.024ZM77.1778 55.024C77.1778 53.84 77.0978 52.848 76.9378 52.048C76.7938 51.232 76.4898 50.568 76.0258 50.056C75.5778 49.544 74.9058 49.288 74.0098 49.288C73.1138 49.288 72.4338 49.544 71.9698 50.056C71.5218 50.568 71.2178 51.232 71.0578 52.048C70.9138 52.848 70.8418 53.84 70.8418 55.024C70.8418 56.24 70.9138 57.264 71.0578 58.096C71.2018 58.912 71.5058 59.576 71.9698 60.088C72.4338 60.584 73.1138 60.832 74.0098 60.832C74.9058 60.832 75.5858 60.584 76.0498 60.088C76.5138 59.576 76.8178 58.912 76.9618 58.096C77.1058 57.264 77.1778 56.24 77.1778 55.024ZM84.8814 61.942L83.2434 65.876H81.9834L82.8934 61.942H84.8814ZM86.0701 58.764C86.0701 57.1493 86.3595 55.8847 86.9381 54.97C87.5261 54.0553 88.4968 53.598 89.8501 53.598C91.2035 53.598 92.1695 54.0553 92.7481 54.97C93.3361 55.8847 93.6301 57.1493 93.6301 58.764C93.6301 60.388 93.3361 61.662 92.7481 62.586C92.1695 63.51 91.2035 63.972 89.8501 63.972C88.4968 63.972 87.5261 63.51 86.9381 62.586C86.3595 61.662 86.0701 60.388 86.0701 58.764ZM91.6981 58.764C91.6981 58.0733 91.6515 57.4947 91.5581 57.028C91.4741 56.552 91.2968 56.1647 91.0261 55.866C90.7648 55.5673 90.3728 55.418 89.8501 55.418C89.3275 55.418 88.9308 55.5673 88.6601 55.866C88.3988 56.1647 88.2215 56.552 88.1281 57.028C88.0441 57.4947 88.0021 58.0733 88.0021 58.764C88.0021 59.4733 88.0441 60.0707 88.1281 60.556C88.2121 61.032 88.3895 61.4193 88.6601 61.718C88.9308 62.0073 89.3275 62.152 89.8501 62.152C90.3728 62.152 90.7695 62.0073 91.0401 61.718C91.3108 61.4193 91.4881 61.032 91.5721 60.556C91.6561 60.0707 91.6981 59.4733 91.6981 58.764ZM95.1209 58.764C95.1209 57.1493 95.4102 55.8847 95.9889 54.97C96.5769 54.0553 97.5476 53.598 98.9009 53.598C100.254 53.598 101.22 54.0553 101.799 54.97C102.387 55.8847 102.681 57.1493 102.681 58.764C102.681 60.388 102.387 61.662 101.799 62.586C101.22 63.51 100.254 63.972 98.9009 63.972C97.5476 63.972 96.5769 63.51 95.9889 62.586C95.4102 61.662 95.1209 60.388 95.1209 58.764ZM100.749 58.764C100.749 58.0733 100.702 57.4947 100.609 57.028C100.525 56.552 100.348 56.1647 100.077 55.866C99.8156 55.5673 99.4236 55.418 98.9009 55.418C98.3782 55.418 97.9816 55.5673 97.7109 55.866C97.4496 56.1647 97.2722 56.552 97.1789 57.028C97.0949 57.4947 97.0529 58.0733 97.0529 58.764C97.0529 59.4733 97.0949 60.0707 97.1789 60.556C97.2629 61.032 97.4402 61.4193 97.7109 61.718C97.9816 62.0073 98.3782 62.152 98.9009 62.152C99.4236 62.152 99.8202 62.0073 100.091 61.718C100.362 61.4193 100.539 61.032 100.623 60.556C100.707 60.0707 100.749 59.4733 100.749 58.764Z" fill="#0C41A5"/>
<path d="M128 64C128 99.3462 99.3462 128 64 128C28.6538 128 0 99.3462 0 64C0 28.6538 28.6538 0 64 0C99.3462 0 128 28.6538 128 64ZM14.4993 64C14.4993 91.3385 36.6615 113.501 64 113.501C91.3385 113.501 113.501 91.3385 113.501 64C113.501 36.6615 91.3385 14.4993 64 14.4993C36.6615 14.4993 14.4993 36.6615 14.4993 64Z" fill="#BBBBBB"/>
<path d="M64 0C55.2698 -1.04106e-07 46.6319 1.78612 38.6177 5.2485L44.3577 18.5346C50.5596 15.8552 57.2441 14.4729 64 14.4729V0Z" fill="#A8D40F"/>
<path d="M64 0C77.7127 1.63523e-07 91.0629 4.40438 102.084 12.5642C113.104 20.7241 121.213 32.2079 125.214 45.3238C129.216 58.4397 128.899 72.4941 124.31 85.4163C119.722 98.3385 111.104 109.445 99.7266 117.1C88.3493 124.755 74.8142 128.553 61.1154 127.935C47.4166 127.317 34.2785 122.315 23.6368 113.667C12.995 105.019 5.41242 93.1811 2.00606 79.8981C-1.40031 66.6152 -0.450275 52.5894 4.71618 39.8872L18.1471 45.35C14.1511 55.1745 13.4163 66.0227 16.0509 76.2964C18.6856 86.57 24.5503 95.7258 32.7811 102.415C41.012 109.104 51.1736 112.972 61.7689 113.45C72.3642 113.928 82.8329 110.991 91.6327 105.07C100.432 99.1495 107.098 90.559 110.647 80.5644C114.196 70.5697 114.441 59.6994 111.346 49.5549C108.251 39.4105 101.98 30.5283 93.4557 24.2171C84.9317 17.9059 74.6061 14.4993 64 14.4993V0Z" fill="#0C41A5"/>
<path d="M53.7909 84L51.7989 80.58H50.4789V84H49.3869V75.636H52.0869C52.7189 75.636 53.2509 75.744 53.6829 75.96C54.1229 76.176 54.4509 76.468 54.6669 76.836C54.8829 77.204 54.9909 77.624 54.9909 78.096C54.9909 78.672 54.8229 79.18 54.4869 79.62C54.1589 80.06 53.6629 80.352 52.9989 80.496L55.0989 84H53.7909ZM50.4789 79.704H52.0869C52.6789 79.704 53.1229 79.56 53.4189 79.272C53.7149 78.976 53.8629 78.584 53.8629 78.096C53.8629 77.6 53.7149 77.216 53.4189 76.944C53.1309 76.672 52.6869 76.536 52.0869 76.536H50.4789V79.704ZM62.6877 80.46C62.6877 80.668 62.6757 80.888 62.6517 81.12H57.3957C57.4357 81.768 57.6557 82.276 58.0557 82.644C58.4637 83.004 58.9557 83.184 59.5317 83.184C60.0037 83.184 60.3957 83.076 60.7077 82.86C61.0277 82.636 61.2517 82.34 61.3797 81.972H62.5557C62.3797 82.604 62.0277 83.12 61.4997 83.52C60.9717 83.912 60.3157 84.108 59.5317 84.108C58.9077 84.108 58.3477 83.968 57.8517 83.688C57.3637 83.408 56.9797 83.012 56.6997 82.5C56.4197 81.98 56.2797 81.38 56.2797 80.7C56.2797 80.02 56.4157 79.424 56.6877 78.912C56.9597 78.4 57.3397 78.008 57.8277 77.736C58.3237 77.456 58.8917 77.316 59.5317 77.316C60.1557 77.316 60.7077 77.452 61.1877 77.724C61.6677 77.996 62.0357 78.372 62.2917 78.852C62.5557 79.324 62.6877 79.86 62.6877 80.46ZM61.5597 80.232C61.5597 79.816 61.4677 79.46 61.2837 79.164C61.0997 78.86 60.8477 78.632 60.5277 78.48C60.2157 78.32 59.8677 78.24 59.4837 78.24C58.9317 78.24 58.4597 78.416 58.0677 78.768C57.6837 79.12 57.4637 79.608 57.4077 80.232H61.5597ZM63.7211 80.688C63.7211 80.016 63.8571 79.428 64.1291 78.924C64.4011 78.412 64.7731 78.016 65.2451 77.736C65.7251 77.456 66.2571 77.316 66.8411 77.316C67.4171 77.316 67.9171 77.44 68.3411 77.688C68.7651 77.936 69.0811 78.248 69.2891 78.624V77.424H70.3931V84H69.2891V82.776C69.0731 83.16 68.7491 83.48 68.3171 83.736C67.8931 83.984 67.3971 84.108 66.8291 84.108C66.2451 84.108 65.7171 83.964 65.2451 83.676C64.7731 83.388 64.4011 82.984 64.1291 82.464C63.8571 81.944 63.7211 81.352 63.7211 80.688ZM69.2891 80.7C69.2891 80.204 69.1891 79.772 68.9891 79.404C68.7891 79.036 68.5171 78.756 68.1731 78.564C67.8371 78.364 67.4651 78.264 67.0571 78.264C66.6491 78.264 66.2771 78.36 65.9411 78.552C65.6051 78.744 65.3371 79.024 65.1371 79.392C64.9371 79.76 64.8371 80.192 64.8371 80.688C64.8371 81.192 64.9371 81.632 65.1371 82.008C65.3371 82.376 65.6051 82.66 65.9411 82.86C66.2771 83.052 66.6491 83.148 67.0571 83.148C67.4651 83.148 67.8371 83.052 68.1731 82.86C68.5171 82.66 68.7891 82.376 68.9891 82.008C69.1891 81.632 69.2891 81.196 69.2891 80.7ZM72.8025 76.356C72.5945 76.356 72.4185 76.284 72.2745 76.14C72.1305 75.996 72.0585 75.82 72.0585 75.612C72.0585 75.404 72.1305 75.228 72.2745 75.084C72.4185 74.94 72.5945 74.868 72.8025 74.868C73.0025 74.868 73.1705 74.94 73.3065 75.084C73.4505 75.228 73.5225 75.404 73.5225 75.612C73.5225 75.82 73.4505 75.996 73.3065 76.14C73.1705 76.284 73.0025 76.356 72.8025 76.356ZM73.3305 77.424V84H72.2385V77.424H73.3305ZM77.5196 84.108C77.0156 84.108 76.5636 84.024 76.1636 83.856C75.7636 83.68 75.4476 83.44 75.2156 83.136C74.9836 82.824 74.8556 82.468 74.8316 82.068H75.9596C75.9916 82.396 76.1436 82.664 76.4156 82.872C76.6956 83.08 77.0596 83.184 77.5076 83.184C77.9236 83.184 78.2516 83.092 78.4916 82.908C78.7316 82.724 78.8516 82.492 78.8516 82.212C78.8516 81.924 78.7236 81.712 78.4676 81.576C78.2116 81.432 77.8156 81.292 77.2796 81.156C76.7916 81.028 76.3916 80.9 76.0796 80.772C75.7756 80.636 75.5116 80.44 75.2876 80.184C75.0716 79.92 74.9636 79.576 74.9636 79.152C74.9636 78.816 75.0636 78.508 75.2636 78.228C75.4636 77.948 75.7476 77.728 76.1156 77.568C76.4836 77.4 76.9036 77.316 77.3756 77.316C78.1036 77.316 78.6916 77.5 79.1396 77.868C79.5876 78.236 79.8276 78.74 79.8596 79.38H78.7676C78.7436 79.036 78.6036 78.76 78.3476 78.552C78.0996 78.344 77.7636 78.24 77.3396 78.24C76.9476 78.24 76.6356 78.324 76.4036 78.492C76.1716 78.66 76.0556 78.88 76.0556 79.152C76.0556 79.368 76.1236 79.548 76.2596 79.692C76.4036 79.828 76.5796 79.94 76.7876 80.028C77.0036 80.108 77.2996 80.2 77.6756 80.304C78.1476 80.432 78.5316 80.56 78.8276 80.688C79.1236 80.808 79.3756 80.992 79.5836 81.24C79.7996 81.488 79.9116 81.812 79.9196 82.212C79.9196 82.572 79.8196 82.896 79.6196 83.184C79.4196 83.472 79.1356 83.7 78.7676 83.868C78.4076 84.028 77.9916 84.108 77.5196 84.108Z" fill="#1C1C1C"/>
</svg>
