<svg width="40" height="40" viewBox="0 0 40 40" fill="none" xmlns="http://www.w3.org/2000/svg">
<path d="M20 18C18.875 18 18 18.9375 18 20C18 21.125 18.875 22 20 22C21.0625 22 22 21.125 22 20C22 18.9375 21.0625 18 20 18ZM18 12.5C18 13.625 18.875 14.5 20 14.5C21.0625 14.5 22 13.625 22 12.5C22 11.4375 21.0625 10.5 20 10.5C18.875 10.5 18 11.4375 18 12.5ZM18 27.5C18 28.625 18.875 29.5 20 29.5C21.0625 29.5 22 28.625 22 27.5C22 26.4375 21.0625 25.5 20 25.5C18.875 25.5 18 26.4375 18 27.5Z" fill="#8F8F8F"/>
</svg>
