<svg width="32" height="26" viewBox="0 0 32 26" fill="none" xmlns="http://www.w3.org/2000/svg">
<path d="M21.1342 22.1345L21.1342 22.1345L29.1235 14.1452C31.9588 11.3099 31.9588 6.71309 29.1235 3.87774C26.2882 1.04249 21.6912 1.04249 18.856 3.87774L10.8667 11.867L10.8667 11.867C8.0314 14.7022 8.03139 19.2991 10.8668 22.1345C13.7021 24.9698 18.299 24.9698 21.1342 22.1345Z" fill="white" stroke="#EC0080" stroke-width="1.5"/>
<path d="M23.2764 14.007L13.1439 3.87447C13.1439 3.87446 13.1439 3.87446 13.1439 3.87445C10.3165 1.04715 5.73714 1.03933 2.89994 3.85106L2.87644 3.87456C0.0411851 6.70991 0.0411852 11.3067 2.87644 14.1421L10.8657 22.1313C13.701 24.9667 18.2979 24.9667 21.1333 22.1313L25.0863 18.1783L25.6304 17.6341L25.6325 17.6363L27.6518 15.6169C27.4877 15.6319 27.3214 15.6396 27.1534 15.6396C25.9338 15.6396 24.8084 15.2358 23.9033 14.5565L23.8689 14.5995L23.2764 14.007Z" fill="white" stroke="#EC0080" stroke-width="1.5"/>
</svg>
