<svg width="17" height="13" viewBox="0 0 17 13" fill="none" xmlns="http://www.w3.org/2000/svg">
<path d="M11.5202 11.1951L15.6482 7.06709C17.2645 5.45074 17.2645 2.83024 15.6482 1.2139C14.0319 -0.402397 11.4113 -0.402397 9.795 1.2139L5.66701 5.34189C4.05066 6.95818 4.05066 9.57874 5.66701 11.1951C7.28336 12.8114 9.90391 12.8114 11.5202 11.1951Z" fill="#EC0080"/>
<path d="M14.3562 7.17766C13.6781 7.17766 13.0657 6.89764 12.6272 6.44735L12.627 6.44762L7.39162 1.21219C5.77533 -0.404046 3.15477 -0.404046 1.53842 1.21219V1.21225C-0.0778709 2.8286 -0.0778709 5.4491 1.53842 7.06544L5.66642 11.1934C7.28277 12.8098 9.90332 12.8098 11.5197 11.1934L13.5622 9.15095L13.5632 9.15205L15.6482 7.06704C15.9461 6.76922 16.1888 6.43715 16.377 6.08362C15.946 6.74231 15.2021 7.17766 14.3562 7.17766Z" fill="#6D218C"/>
</svg>
