<svg width="80" height="61" viewBox="0 0 80 61" fill="none" xmlns="http://www.w3.org/2000/svg">
<path d="M54.1616 55.1346L74.1347 35.1616C81.9551 27.341 81.9551 14.6615 74.1347 6.84115L74.1345 6.84095C66.3142 -0.979443 53.6347 -0.979443 45.8143 6.84095L25.8411 26.8141C18.0207 34.6347 18.0207 47.314 25.8411 55.1346C33.6617 62.9551 46.3412 62.9551 54.1616 55.1346Z" fill="#EC0080"/>
<path d="M67.8836 35.6986C64.6026 35.6986 61.6394 34.3437 59.5178 32.1651L59.5168 32.1664L34.1859 6.83524C26.3655 -0.985146 13.6858 -0.985146 5.86544 6.83524C-1.95515 14.6558 -1.95515 27.3353 5.86544 35.1557L25.8386 55.1289C33.659 62.9492 46.3385 62.9492 54.1588 55.1289L64.0415 45.2462L64.0467 45.2516L74.1346 35.1637C75.5759 33.7223 76.7507 32.1157 77.6606 30.4053C75.5755 33.5923 71.9765 35.6986 67.8836 35.6986Z" fill="white"/>
</svg>
