<svg width="16" height="13" viewBox="0 0 16 13" fill="none" xmlns="http://www.w3.org/2000/svg">
<path d="M10.4788 10.4792L10.4788 10.4792L14.4734 6.48456C15.8423 5.11569 15.8423 2.89643 14.4734 1.52756C13.1046 0.158739 10.8852 0.158739 9.51641 1.52756L5.52177 5.5222L5.52176 5.52221C4.1529 6.89102 4.1529 9.11033 5.52177 10.4792C6.89064 11.8481 9.10996 11.8481 10.4788 10.4792Z" fill="white" stroke="#8F8F8F"/>
<path d="M11.5499 6.5938L6.48363 1.52751C6.48362 1.52751 6.48362 1.5275 6.48362 1.5275C5.11867 0.16261 2.90802 0.158746 1.53823 1.51594L1.52662 1.52755C0.157793 2.89642 0.157793 5.1157 1.52662 6.48457L5.52126 10.4792C6.89013 11.8481 9.10945 11.8481 10.4783 10.4792L12.4548 8.5027L12.8176 8.13991L12.8186 8.14098L13.5136 7.44601C12.9433 7.43351 12.4145 7.25218 11.9753 6.95086L11.9449 6.98882L11.5499 6.5938Z" fill="white" stroke="#8F8F8F"/>
</svg>
