<svg width="42" height="36" viewBox="0 0 32 26" fill="none" xmlns="http://www.w3.org/2000/svg">
<path d="M20.9575 21.958L20.9575 21.958L28.9467 13.9687C31.6844 11.231 31.6844 6.79253 28.9467 4.05481C26.2091 1.31719 21.7704 1.31719 19.0328 4.05481L11.0435 12.044L11.0435 12.0441C8.30581 14.7817 8.3058 19.2203 11.0435 21.958C13.7813 24.6957 18.2198 24.6957 20.9575 21.958Z" fill="white" stroke="#EC0080" stroke-width="2"/>
<path d="M23.0996 14.1841L12.9672 4.05152C12.9672 4.05152 12.9672 4.05151 12.9671 4.05151C10.2372 1.32168 5.81578 1.31401 3.07625 4.02858L3.05322 4.05161C0.315596 6.78933 0.315592 11.2278 3.05321 13.9656C3.05322 13.9656 3.05322 13.9656 3.05322 13.9656L11.0424 21.9548C13.7802 24.6925 18.2188 24.6925 20.9565 21.9548L24.9095 18.0018L25.6351 17.2762L25.6371 17.2784L27.027 15.8885C25.8864 15.8634 24.8289 15.5008 23.9504 14.8982L23.8896 14.9741L23.0996 14.1841Z" fill="white" stroke="#EC0080" stroke-width="2"/>
</svg>
