<svg width="16" height="19" viewBox="0 0 16 19" fill="none" xmlns="http://www.w3.org/2000/svg">
<path d="M14.1875 2.5H12.5V0.671875C12.5 0.460938 12.2891 0.25 12.0781 0.25H11.7969C11.5508 0.25 11.375 0.460938 11.375 0.671875V2.5H4.625V0.671875C4.625 0.460938 4.41406 0.25 4.20312 0.25H3.92188C3.67578 0.25 3.5 0.460938 3.5 0.671875V2.5H1.8125C0.863281 2.5 0.125 3.27344 0.125 4.1875V16.5625C0.125 17.5117 0.863281 18.25 1.8125 18.25H14.1875C15.1016 18.25 15.875 17.5117 15.875 16.5625V4.1875C15.875 3.27344 15.1016 2.5 14.1875 2.5ZM1.8125 3.625H14.1875C14.4688 3.625 14.75 3.90625 14.75 4.1875V5.875H1.25V4.1875C1.25 3.90625 1.49609 3.625 1.8125 3.625ZM14.1875 17.125H1.8125C1.49609 17.125 1.25 16.8789 1.25 16.5625V7H14.75V16.5625C14.75 16.8789 14.4688 17.125 14.1875 17.125Z" fill="#273240"/>
</svg>
