<svg width="33" height="24" viewBox="0 0 33 24" fill="none" xmlns="http://www.w3.org/2000/svg">
<path d="M8.5 11.5C6.875 11.5 5.75 12.5625 5.75 14C5.75 15.5 6.875 16.5 8.5 16.5H9.125C11.625 16.5 12 15.25 12 14.5C12 13 10 11.5 8.5 11.5ZM9.125 15C8.9375 15 8.6875 15 8.5 15C7.75 15 7.25 14.625 7.25 14C7.25 13.4375 7.75 13 8.5 13C9.3125 13 10.5 13.9375 10.5 14.5C10.5 15 9.8125 15 9.125 15ZM25.4375 11.5C23.9375 11.5 22 13 22 14.5C22 15.25 22.3125 16.5625 24.8125 16.5625L25.4375 16.5C27.0625 16.5 28.25 15.5 28.25 14C28.1875 12.5625 27.0625 11.5 25.4375 11.5ZM25.4375 15C25.25 15 25 15 24.8125 15C24.125 15 23.4375 15 23.4375 14.5C23.4375 13.9375 24.625 13 25.4375 13C26.1875 13 26.6875 13.4375 26.6875 14C26.6875 14.625 26.1875 15 25.4375 15ZM32.5625 6.1875C32.125 5.5 31.3125 5 30.4375 5H27.375L26.875 3.5C26.1875 1.4375 24.25 0 22.125 0H11.8125C9.6875 0 7.75 1.4375 7.0625 3.5L6.5625 5H3.5C2.625 5 1.8125 5.5 1.375 6.1875C0.875 6.9375 0.875 7.875 1.25 8.625L1.625 9.375C1.875 9.875 2.1875 10.25 2.6875 10.5625C2.25 11.25 2 12.125 2 13V21C2 22.6875 3.3125 24 5 24H6C7.625 24 9 22.6875 9 21V20H25V21C25 22.6875 26.3125 24 28 24H29C30.625 24 32 22.6875 32 21V13C32 12.125 31.6875 11.25 31.25 10.5625C31.75 10.25 32.125 9.875 32.3125 9.375L32.6875 8.625C33.0625 7.875 33.0625 6.9375 32.5625 6.1875ZM9 4.125C9.375 2.875 10.5625 2 11.8125 2H22.125C23.4375 2 24.5625 2.875 24.9375 4.125L26.25 8H7.6875L9 4.125ZM3.375 8.5L3 7.75C2.9375 7.5 3 7.3125 3.0625 7.25C3.125 7.1875 3.25 7 3.5 7H5.9375L5.5 8.25C5.0625 8.375 4.4375 8.6875 4.0625 9C3.8125 8.9375 3.5 8.75 3.375 8.5ZM7 21C7 21.5625 6.5 22 6 22H5C4.4375 22 4 21.5625 4 21V20H7V21ZM29.9375 21C29.9375 21.5625 29.5 22 28.9375 22H27.9375C27.4375 22 26.9375 21.5625 26.9375 21V20H29.9375V21ZM29.9375 16V18H4V13C4 11.375 5.3125 10 7 10H26.9375C28.625 10 29.9375 11.375 29.9375 13V16ZM30.9375 7.75L30.5625 8.5C30.4375 8.75 30.125 8.9375 29.875 9C29.4375 8.6875 28.9375 8.4375 28.4375 8.25L28 7H30.4375C30.6875 7 30.8125 7.1875 30.875 7.25C30.9375 7.3125 31 7.5 30.9375 7.75Z" fill="#6D218C"/>
</svg>
