<svg width="40" height="30" viewBox="0 0 40 30" fill="none" xmlns="http://www.w3.org/2000/svg">
<path d="M36.25 0H3.75C1.64062 0 0 1.71875 0 3.75V26.25C0 28.3594 1.64062 30 3.75 30H36.25C38.2812 30 40 28.3594 40 26.25V3.75C40 1.71875 38.2812 0 36.25 0ZM3.75 2.5H36.25C36.875 2.5 37.5 3.125 37.5 3.75V7.03125C35.7812 8.4375 33.2812 10.4688 25.7031 16.4844C24.375 17.5781 21.7969 20.0781 20 20C18.125 20.0781 15.5469 17.5781 14.2188 16.4844C6.64062 10.4688 4.14062 8.4375 2.5 7.03125V3.75C2.5 3.125 3.04688 2.5 3.75 2.5ZM36.25 27.5H3.75C3.04688 27.5 2.5 26.9531 2.5 26.25V10.2344C4.21875 11.7188 7.03125 13.9844 12.6562 18.4375C14.2969 19.7656 17.1094 22.5781 20 22.5C22.8125 22.5781 25.625 19.7656 27.2656 18.4375C32.8906 13.9844 35.7031 11.7188 37.5 10.2344V26.25C37.5 26.9531 36.875 27.5 36.25 27.5Z" fill="#EC0080"/>
</svg>
