<svg width="184" height="40" viewBox="0 0 184 40" fill="none" xmlns="http://www.w3.org/2000/svg">
<path d="M65.8344 24.3033C65.8344 22.6231 64.4721 21.2608 62.7919 21.2608C61.1116 21.2608 59.7495 22.6231 59.7495 24.3033C59.7495 25.9836 61.1116 27.3457 62.7919 27.3457C64.4721 27.3457 65.8344 25.9836 65.8344 24.3033Z" fill="#6D218C"/>
<path d="M74.9189 30.461V10.7589C74.9189 9.64372 75.8232 8.73949 76.9384 8.73949C78.0538 8.73949 78.9578 9.64372 78.9578 10.7589V30.461C78.9578 31.5762 78.0538 32.4805 76.9384 32.4805C75.8232 32.4805 74.9189 31.5762 74.9189 30.461Z" fill="#6D218C"/>
<path d="M82.8657 30.461V10.7589C82.8657 9.64372 83.7699 8.73949 84.8852 8.73949C86.0005 8.73949 86.9046 9.64372 86.9046 10.7589V30.461C86.9046 31.5762 86.0005 32.4805 84.8852 32.4805C83.7699 32.4805 82.8657 31.5762 82.8657 30.461Z" fill="#6D218C"/>
<path d="M103.191 20.4129C102.294 19.395 101.112 18.886 99.6447 18.886C98.2218 18.886 97.0398 19.3457 96.0984 20.2652C95.1572 21.1844 94.6865 22.4433 94.6865 24.0413C94.6865 25.6394 95.1572 26.9419 96.0984 27.9488C97.0398 28.9559 98.2548 29.4594 99.7434 29.4594C101.21 29.4594 102.376 28.9559 103.24 27.9488C104.105 26.9419 104.538 25.6942 104.537 24.2056C104.537 22.6952 104.089 21.4309 103.191 20.4129ZM90.7461 37.9805V17.8844C90.7461 16.769 91.6502 15.865 92.7655 15.865C93.8808 15.865 94.785 16.769 94.785 17.8844V18.3607C96.0327 16.4561 97.9264 15.5039 100.466 15.5039C102.874 15.5039 104.833 16.3411 106.344 18.0158C107.854 19.6904 108.609 21.7647 108.609 24.2385C108.609 26.6683 107.865 28.7096 106.376 30.3625C104.888 32.0152 102.907 32.8415 100.433 32.8415C98.0031 32.8415 96.1203 31.9003 94.785 30.0177V37.9805C94.785 39.0959 93.8808 40 92.7655 40C91.6502 40 90.7461 39.0959 90.7461 37.9805Z" fill="#6D218C"/>
<path d="M115.635 27.8835C116.576 28.8903 117.748 29.394 119.149 29.394C120.55 29.394 121.726 28.8903 122.679 27.8835C123.631 26.8765 124.107 25.6397 124.107 24.1729C124.107 22.7281 123.631 21.4967 122.679 20.4788C121.726 19.4608 120.55 18.9518 119.149 18.9518C117.748 18.9518 116.576 19.4553 115.635 20.4625C114.694 21.4693 114.223 22.7064 114.223 24.1729C114.223 25.6397 114.694 26.8765 115.635 27.8835ZM112.844 18.049C114.639 16.3523 116.741 15.5041 119.149 15.5041C121.6 15.5041 123.718 16.3579 125.502 18.0653C127.287 19.7728 128.179 21.8086 128.179 24.1729C128.179 26.559 127.287 28.6004 125.502 30.2969C123.718 31.9935 121.6 32.8418 119.149 32.8418C116.719 32.8418 114.612 31.9935 112.827 30.2969C111.043 28.6004 110.151 26.559 110.151 24.1729C110.151 21.7867 111.049 19.7455 112.844 18.049Z" fill="#6D218C"/>
<path d="M130.871 30.461V17.8846C130.871 16.769 131.775 15.865 132.891 15.865C134.006 15.865 134.91 16.769 134.91 17.8846V30.461C134.91 31.5764 134.006 32.4805 132.891 32.4805C131.775 32.4805 130.871 31.5764 130.871 30.461Z" fill="#6D218C"/>
<path d="M140.771 15.865C141.886 15.865 142.79 16.7691 142.79 17.8844V18.6561C143.819 16.5546 145.614 15.5039 148.176 15.5039C150.211 15.5039 151.744 16.1879 152.773 17.556C153.801 18.9243 154.316 20.8343 154.316 23.286V30.461C154.316 31.5764 153.412 32.4805 152.297 32.4805C151.181 32.4805 150.277 31.5764 150.277 30.461V23.319C150.277 21.896 149.993 20.8071 149.423 20.0516C148.854 19.2965 148.066 18.9188 147.059 18.9188C145.811 18.9188 144.788 19.3786 143.989 20.2979C143.19 21.2174 142.79 22.5091 142.79 24.1728V30.461C142.79 31.5764 141.886 32.4805 140.771 32.4805C139.656 32.4805 138.751 31.5764 138.751 30.461V17.8844C138.751 16.7691 139.656 15.865 140.771 15.865Z" fill="#6D218C"/>
<path d="M172.129 27.8114C172.848 27.5076 173.664 27.7365 174.164 28.3359C174.366 28.5784 174.613 28.7888 174.904 28.9671C175.582 29.383 176.326 29.5909 177.137 29.5909C177.815 29.5909 178.401 29.4541 178.893 29.1805C179.386 28.9067 179.632 28.4634 179.632 27.8506C179.632 27.1722 179.03 26.5809 177.826 26.0774L175.396 25.1581C172.616 24.1074 171.226 22.5639 171.226 20.5281C171.226 19.0176 171.8 17.8027 172.95 16.8832C174.099 15.9637 175.549 15.5041 177.301 15.5041C179.296 15.5041 180.824 16.0595 181.885 17.1706C182.717 18.0417 182.376 19.4823 181.244 19.8939L181.147 19.9295C180.505 20.1628 179.802 19.9568 179.347 19.4481C178.895 18.9421 178.224 18.6892 177.333 18.6892C176.764 18.6892 176.261 18.8425 175.823 19.1488C175.385 19.4553 175.166 19.8822 175.166 20.4295C175.166 21.152 175.746 21.7212 176.907 22.1372L179.369 23.0237C182.193 23.9651 183.605 25.552 183.605 27.7849C183.605 29.3612 182.976 30.5979 181.717 31.4955C180.458 32.393 178.92 32.8418 177.104 32.8418C175.593 32.8418 174.209 32.4915 172.95 31.7911C172.347 31.4556 171.838 31.0322 171.424 30.521C170.695 29.623 171.024 28.2783 172.089 27.8282L172.129 27.8114Z" fill="#6D218C"/>
<path d="M167.227 27.6795C166.583 27.6795 166.009 28.0511 165.704 28.6185C165.639 28.7387 165.555 28.8621 165.447 28.9837C165.141 29.301 164.747 29.4595 164.265 29.4595C163.192 29.4595 162.656 28.8578 162.656 27.6535V18.9518H166.071C166.933 18.9518 167.63 18.2452 167.614 17.3795C167.598 16.5301 166.87 15.8652 166.02 15.8652H162.656V13.1183C162.656 12.1645 161.864 11.3957 160.902 11.4337C160.091 11.4655 159.428 12.0975 159.297 12.8989L158.814 15.8652H157.566C156.704 15.8652 156.007 16.5718 156.023 17.4374C156.039 18.2871 156.768 18.9518 157.617 18.9518H158.617V27.0953C158.617 29.197 159.132 30.68 160.16 31.5447C161.189 32.4094 162.503 32.8418 164.101 32.8418C165.808 32.8418 167.111 32.4039 168.008 31.5285C168.463 31.0938 168.77 30.6194 168.975 30.1559C169.491 28.989 168.604 27.6795 167.328 27.6795H167.227Z" fill="#6D218C"/>
<path d="M135.519 11.3187C135.519 9.89396 134.364 8.73898 132.94 8.73898C131.515 8.73898 130.36 9.89396 130.36 11.3187C130.36 12.7436 131.515 13.8984 132.94 13.8984C134.364 13.8984 135.519 12.7436 135.519 11.3187Z" fill="#6D218C"/>
<path d="M62.7922 33.0957C57.9441 33.0957 54 29.1516 54 24.3035C54 19.4554 57.9441 15.5112 62.7922 15.5112C67.6403 15.5112 71.5844 19.4554 71.5844 24.3035V30.5454C71.5844 31.6655 70.6764 32.5737 69.5562 32.5737C68.436 32.5737 67.5279 31.6655 67.5279 30.5454V24.3035C67.5279 21.6922 65.4035 19.5678 62.7922 19.5678C60.1809 19.5678 58.0565 21.6922 58.0565 24.3035C58.0565 26.9148 60.1809 29.0392 62.7922 29.0392C63.2018 29.0392 63.6078 28.9872 63.9987 28.8847C65.0821 28.6008 66.1912 29.2484 66.4753 30.3319C66.7595 31.4154 66.1115 32.5242 65.028 32.8085C64.3013 32.9991 63.5491 33.0957 62.7922 33.0957Z" fill="#6D218C"/>
<path d="M29.2383 29.2418L40.0204 18.4597C44.2423 14.2379 44.2423 7.39328 40.0204 3.17146C35.7988 -1.05021 28.9539 -1.05021 24.7322 3.17146L13.9501 13.9536C9.72824 18.1753 9.72824 25.02 13.9501 29.2418C18.1719 33.4637 25.0166 33.4637 29.2383 29.2418Z" fill="#EC0080"/>
<path d="M36.6457 18.7489C34.8744 18.7489 33.275 18.0175 32.1296 16.8414L32.1291 16.8421L18.4545 3.16741C14.2328 -1.05412 7.38808 -1.05412 3.16626 3.16741V3.16755C-1.05542 7.38938 -1.05542 14.234 3.16626 18.4558L13.9484 29.2379C18.1702 33.4598 25.015 33.4598 29.2368 29.2379L34.5717 23.903L34.5744 23.9059L40.0203 18.46C40.7984 17.6821 41.4324 16.8147 41.9238 15.8913C40.7981 17.6118 38.8551 18.7489 36.6457 18.7489Z" fill="#6D218C"/>
</svg>
