<svg width="32" height="24" viewBox="0 0 32 24" fill="none" xmlns="http://www.w3.org/2000/svg">
<path d="M21.0575 20.7083L21.0575 20.7082L28.9543 12.8115C31.6558 10.11 31.6558 5.73017 28.9543 3.02865C26.2528 0.327246 21.8728 0.327246 19.1714 3.02865L11.2747 10.9254L11.2747 10.9254C8.57317 13.6268 8.57315 18.0067 11.2747 20.7082C13.9762 23.4098 18.3561 23.4097 21.0575 20.7083Z" fill="white" stroke="#6D218C" stroke-width="2"/>
<path d="M23.1741 13.0438L13.159 3.02856C13.159 3.02855 13.159 3.02855 13.159 3.02854C10.4651 0.334785 6.1021 0.32725 3.3988 3.006L3.37617 3.02864C0.674741 5.73016 0.674742 10.11 3.37617 12.8115L11.2729 20.7082C13.9744 23.4098 18.3543 23.4098 21.0558 20.7082L24.9631 16.801L25.6885 16.0756L25.6905 16.0777L27.037 14.7312C25.9216 14.7015 24.8873 14.3457 24.0259 13.7573L23.9645 13.8342L23.1741 13.0438Z" fill="white" stroke="#6D218C" stroke-width="2"/>
</svg>
