<svg width="26" height="40" viewBox="0 0 26 40" fill="none" xmlns="http://www.w3.org/2000/svg">
<path d="M15.5 32.5C15.5 31.1719 14.3281 30 13 30C11.5938 30 10.5 31.1719 10.5 32.5C10.5 33.9062 11.5938 35 13 35C14.3281 35 15.5 33.9062 15.5 32.5ZM25.5 3.75C25.5 1.71875 23.7812 0 21.75 0H4.25C2.14062 0 0.5 1.71875 0.5 3.75V36.25C0.5 38.3594 2.14062 40 4.25 40H21.75C23.7812 40 25.5 38.3594 25.5 36.25V3.75ZM23 3.75V36.25C23 36.9531 22.375 37.5 21.75 37.5H4.25C3.54688 37.5 3 36.9531 3 36.25V3.75C3 3.125 3.54688 2.5 4.25 2.5H21.75C22.375 2.5 23 3.125 23 3.75Z" fill="#EC0080"/>
</svg>
