<svg width="37" height="32" viewBox="0 0 37 32" fill="none" xmlns="http://www.w3.org/2000/svg">
<path d="M31 12H23.8125L17.25 0.5625C17.125 0.25 16.6875 0 16.375 0H10.875C10.1875 0 9.75 0.6875 9.875 1.3125L13 12H9L6.25 8.4375C6.0625 8.1875 5.8125 8 5.5 8H2C1.3125 8 0.8125 8.625 1 9.25L3 16L1 22.8125C0.8125 23.4375 1.3125 24 2 24H5.5C5.8125 24 6.0625 23.875 6.25 23.625L9 20H13L9.875 30.75C9.75 31.375 10.1875 32 10.875 32H16.375C16.75 32 17.0625 31.8125 17.25 31.5L23.8125 20H31C33.1875 20 37 18.25 37 16C37 13.8125 33.1875 12 31 12ZM31 18H22.6875L15.8125 30H12.1875L15.625 18H8L5 22H3.3125L5.0625 16L3.3125 10H5L8 14H15.625L12.1875 2H15.8125L22.6875 14H31C32.625 14 34.875 15.375 35 16C34.875 16.6875 32.625 18 31 18Z" fill="#6D218C"/>
</svg>
