<svg width="216" height="144" viewBox="0 0 216 144" fill="none" xmlns="http://www.w3.org/2000/svg">
<g clip-path="url(#clip0)">
<path d="M80.8737 8.13746C86.7573 4.15323 93.673 2.02746 100.746 2.02734C110.228 2.03836 119.322 5.86057 126.031 12.6599C132.74 19.4598 136.516 28.6821 136.527 38.3043C136.527 45.4815 134.427 52.4965 130.494 58.4621C126.561 64.4278 120.972 69.0755 114.435 71.8195C107.899 74.5634 100.707 75.2811 93.7692 73.8825C86.8311 72.4838 80.4561 69.0311 75.4513 63.9588C70.4463 58.8864 67.0364 52.4221 65.6548 45.3827C64.2732 38.3433 64.9824 31.0469 67.6922 24.4167C70.402 17.7866 74.9899 12.1219 80.8737 8.13746Z" fill="#6D218C" stroke="white" stroke-width="2"/>
<path d="M120.201 68.398C120.471 68.0131 120.826 67.6976 121.238 67.4765C121.65 67.2555 122.107 67.135 122.572 67.1247C123.038 67.1144 123.5 67.2145 123.921 67.4172C124.341 67.6198 124.71 67.9194 124.996 68.2919L135.045 64.8301L133.652 70.2388L124.323 72.697C123.738 73.0981 123.034 73.278 122.332 73.205C121.63 73.1321 120.976 72.811 120.484 72.2982C119.992 71.7853 119.695 71.1133 119.643 70.4001C119.591 69.687 119.789 68.9781 120.201 68.398Z" fill="#FFB8B8"/>
<path d="M199.136 143.567C199.876 135.484 201.922 127.579 205.19 120.167C206.101 118.104 207.104 116.087 208.198 114.116C208.48 113.608 207.71 113.152 207.429 113.66C203.449 120.841 200.661 128.637 199.176 136.735C198.763 138.997 198.452 141.274 198.244 143.567C198.192 144.146 199.083 144.142 199.136 143.567Z" fill="#E6E6E6"/>
<path d="M210.356 115.564C213.473 115.564 216 113.003 216 109.845C216 106.686 213.473 104.125 210.356 104.125C207.24 104.125 204.713 106.686 204.713 109.845C204.713 113.003 207.24 115.564 210.356 115.564Z" fill="#E6E6E6"/>
<path d="M199.712 143.72C200.193 138.476 201.52 133.347 203.64 128.539C204.231 127.201 204.882 125.892 205.592 124.613C205.627 124.546 205.636 124.468 205.616 124.395C205.596 124.321 205.548 124.259 205.483 124.221C205.419 124.182 205.342 124.171 205.269 124.189C205.196 124.207 205.133 124.253 205.093 124.317C202.511 128.976 200.702 134.034 199.739 139.287C199.471 140.755 199.269 142.232 199.134 143.72C199.1 144.095 199.678 144.093 199.712 143.72H199.712Z" fill="#E6E6E6"/>
<path d="M206.992 125.552C209.014 125.552 210.653 123.891 210.653 121.841C210.653 119.792 209.014 118.131 206.992 118.131C204.97 118.131 203.331 119.792 203.331 121.841C203.331 123.891 204.97 125.552 206.992 125.552Z" fill="#E6E6E6"/>
<path d="M198.983 143.369C196.18 138.935 194.113 134.064 192.867 128.951C192.521 127.527 192.24 126.09 192.024 124.639C192.011 124.564 191.97 124.497 191.91 124.452C191.85 124.407 191.774 124.387 191.7 124.397C191.626 124.407 191.558 124.446 191.512 124.506C191.465 124.565 191.443 124.641 191.451 124.717C192.242 130 193.885 135.115 196.314 139.858C196.993 141.182 197.731 142.472 198.528 143.729C198.728 144.047 199.183 143.684 198.983 143.369V143.369Z" fill="#E6E6E6"/>
<path d="M191.445 125.292C193.467 125.292 195.107 123.631 195.107 121.582C195.107 119.532 193.467 117.871 191.445 117.871C189.423 117.871 187.784 119.532 187.784 121.582C187.784 123.631 189.423 125.292 191.445 125.292Z" fill="#E6E6E6"/>
<path d="M169.693 89.8645C169.934 89.495 170.091 89.0767 170.155 88.6389C170.219 88.2011 170.187 87.7544 170.062 87.3304C169.937 86.9065 169.721 86.5154 169.431 86.1849C169.141 85.8544 168.782 85.5924 168.381 85.4174L169.151 74.6885L164.338 77.4195L164.345 87.1891C164.1 87.8914 164.117 88.6606 164.394 89.3509C164.671 90.0411 165.188 90.6045 165.847 90.9343C166.506 91.264 167.262 91.3373 167.971 91.1401C168.68 90.9429 169.292 90.489 169.693 89.8644V89.8645Z" fill="#FFB8B8"/>
<path d="M168.496 48.1583L169.812 82.3004L164.465 81.9994L163.277 46.177L164.405 45.6392C164.834 45.4347 165.306 45.3409 165.78 45.3664C166.253 45.3919 166.713 45.5358 167.118 45.7853C167.523 46.0347 167.861 46.382 168.101 46.7961C168.342 47.2102 168.477 47.6782 168.496 48.1583Z" fill="#EC0080"/>
<path d="M151.963 140.35L148.321 140.349L146.589 126.114L151.963 126.115L151.963 140.35Z" fill="#FFB8B8"/>
<path d="M145.72 139.295H152.742V143.776H141.298C141.298 143.188 141.412 142.605 141.634 142.061C141.857 141.518 142.182 141.024 142.593 140.607C143.004 140.191 143.491 139.861 144.027 139.636C144.564 139.411 145.139 139.295 145.72 139.295Z" fill="#2F2E41"/>
<path d="M182.259 135.939L178.955 137.49L171.481 125.31L176.359 123.021L182.259 135.939Z" fill="#FFB8B8"/>
<path d="M176.157 137.64L182.53 134.65L184.388 138.716L174.002 143.589C173.509 142.511 173.46 141.278 173.864 140.162C174.268 139.046 175.093 138.139 176.157 137.64Z" fill="#2F2E41"/>
<path d="M143.316 93.8932L147.071 137.328L152.121 136.726L155.853 97.0507L176.477 134.92L181.823 133.415C181.823 133.415 164.615 81.2467 163.278 76.8818C161.813 72.0968 150.209 70.2592 150.209 70.2592L149.764 69.8076C144.778 76.6101 142.78 85.4366 143.316 93.8932Z" fill="#2F2E41"/>
<path d="M163.323 41.8711C167.352 41.8711 170.618 38.5609 170.618 34.4776C170.618 30.3942 167.352 27.084 163.323 27.084C159.294 27.084 156.027 30.3942 156.027 34.4776C156.027 38.5609 159.294 41.8711 163.323 41.8711Z" fill="#FFB8B8"/>
<path d="M167.903 48.7437L162.832 75.5262C162.832 75.5262 155.127 73.9669 152.383 72.0885C151.296 71.3419 150.31 70.5713 149.478 69.8729C149.315 69.7374 149.16 69.602 149.009 69.4725C147.636 68.2835 146.793 67.3984 146.793 67.3984C146.793 67.3984 147.232 65.216 147.77 62.6332C148.37 59.7403 149.098 56.3417 149.469 54.9539C150.286 51.9105 153.09 48.3644 155.276 45.9501C156.067 45.0746 157.079 44.4339 158.203 44.0966C159.326 43.7594 160.519 43.7383 161.653 44.0356L165.609 45.0711C166.381 45.2728 167.048 45.7649 167.474 46.4472C167.9 47.1295 168.053 47.9508 167.903 48.7437Z" fill="#EC0080"/>
<path opacity="0.2" d="M155.641 60.4418C155.641 60.4418 152.915 66.1854 149.009 69.4727C147.636 68.2836 146.793 67.3986 146.793 67.3986C146.793 67.3986 147.232 65.2161 147.77 62.6333C151.043 60.8813 154.418 59.7766 155.641 60.4418Z" fill="black"/>
<path d="M160.477 49.9283C160.208 49.7892 159.926 49.6758 159.636 49.5898C159.044 49.4253 158.421 49.4123 157.822 49.5521C157.224 49.6919 156.669 49.98 156.207 50.3906L140.18 62.2881L127.434 66.6335L129.737 72.1545L148.739 67.4513L161.342 56.1002C161.776 55.6787 162.104 55.1586 162.3 54.583C162.496 54.0073 162.555 53.3926 162.47 52.7896C162.386 52.1867 162.161 51.6127 161.814 51.1152C161.468 50.6177 161.009 50.2108 160.477 49.9283Z" fill="#EC0080"/>
<path d="M163.754 41.8031C164.792 40.228 165.612 38.044 164.469 36.5454C163.34 35.0661 161.114 35.284 159.386 34.6294C156.979 33.7177 155.583 30.8517 156.019 28.2851C156.454 25.7184 158.487 23.5907 160.909 22.7201C163.331 21.8495 166.062 22.1327 168.433 23.1352C171.353 24.3693 173.857 26.7566 174.908 29.7808C175.958 32.8049 175.396 36.4359 173.218 38.7603C170.882 41.2524 167.216 41.9165 163.825 41.8762" fill="#2F2E41"/>
<path d="M175.21 33.0851C175.507 34.7682 177.329 35.7241 179.003 35.9342C180.678 36.1443 182.409 35.8749 184.039 36.3162C186.913 37.0942 188.808 39.8949 189.851 42.7177C190.894 45.5406 191.357 48.5873 192.712 51.2704C194.068 53.9536 196.696 56.3191 199.66 56.0681C199.079 57.5496 198.061 58.8135 196.746 59.6874C195.43 60.5612 193.881 61.0023 192.309 60.9507C190.736 60.899 189.218 60.357 187.961 59.3987C186.704 58.4403 185.77 57.1123 185.285 55.5957C184.196 52.189 185.446 48.1263 183.542 45.1098C182.488 43.4406 180.669 42.4587 178.915 41.5839C177.16 40.709 175.319 39.8111 174.143 38.2281C172.966 36.6452 172.731 34.1453 174.181 32.8154" fill="#2F2E41"/>
<path d="M210.735 143.936H115.6C115.506 143.936 115.416 143.898 115.35 143.831C115.283 143.763 115.246 143.672 115.246 143.577C115.246 143.482 115.283 143.391 115.35 143.324C115.416 143.256 115.506 143.219 115.6 143.219H210.735C210.829 143.219 210.919 143.256 210.985 143.324C211.052 143.391 211.089 143.482 211.089 143.577C211.089 143.672 211.052 143.763 210.985 143.831C210.919 143.898 210.829 143.936 210.735 143.936Z" fill="#3F3D56"/>
<path d="M95.4892 143.936H0.353665C0.259868 143.936 0.169909 143.898 0.103585 143.831C0.03726 143.763 0 143.672 0 143.577C0 143.482 0.03726 143.391 0.103585 143.324C0.169909 143.256 0.259868 143.219 0.353665 143.219H95.4892C95.583 143.219 95.673 143.256 95.7393 143.324C95.8056 143.391 95.8429 143.482 95.8429 143.577C95.8429 143.672 95.8056 143.763 95.7393 143.831C95.673 143.898 95.583 143.936 95.4892 143.936Z" fill="#3F3D56"/>
<path d="M61.1285 140.018L64.6099 138.935L62.1458 124.812L57.0078 126.41L61.1285 140.018Z" fill="#A0616A"/>
<path d="M72.3154 140.124L61.3744 143.527L60.0771 139.243L66.7909 137.155C67.9121 136.806 69.1239 136.923 70.16 137.48C71.196 138.037 71.9714 138.988 72.3154 140.124Z" fill="#2F2E41"/>
<path d="M30.2379 140.099H33.8794L35.6117 125.864L30.2373 125.865L30.2379 140.099Z" fill="#A0616A"/>
<path d="M40.9023 143.526L29.4577 143.527L29.4575 139.046L36.4804 139.045C37.6531 139.045 38.7778 139.517 39.6071 140.358C40.4364 141.198 40.9023 142.338 40.9023 143.526Z" fill="#2F2E41"/>
<path d="M31.1657 92.8153C30.8665 92.5495 30.6285 92.2204 30.4684 91.8513C30.3083 91.4822 30.23 91.082 30.239 90.6789C30.248 90.2757 30.3441 89.8795 30.5205 89.5181C30.697 89.1567 30.9494 88.839 31.2602 88.5872L34.0835 52.5557L39.8253 54.0095L35.228 89.1572C35.6108 89.7143 35.7787 90.3943 35.6998 91.0684C35.6209 91.7426 35.3008 92.364 34.8001 92.8149C34.2993 93.2658 33.6528 93.5149 32.983 93.5149C32.3131 93.515 31.6665 93.2661 31.1657 92.8153Z" fill="#A0616A"/>
<path d="M44.7425 38.8809C48.7716 38.8809 52.0378 35.5707 52.0378 31.4873C52.0378 27.404 48.7716 24.0938 44.7425 24.0938C40.7135 24.0938 37.4473 27.404 37.4473 31.4873C37.4473 35.5707 40.7135 38.8809 44.7425 38.8809Z" fill="#A0616A"/>
<path d="M34.778 53.2707C33.0443 50.8586 32.9909 47.5364 34.8585 45.2291C36.0772 43.7234 38.1158 42.5186 41.5193 42.5186C50.5914 42.5186 54.0325 49.8106 54.0325 49.8106C54.0325 49.8106 57.7864 56.7855 55.5966 63.1264C53.4068 69.4673 53.4068 70.1014 53.4068 70.1014L39.0167 68.8332C39.0167 68.8332 41.4443 62.5457 34.778 53.2707Z" fill="#CCCCCC"/>
<path d="M30.3398 59.5819L33.4399 49.303C33.6475 48.6148 34.0017 47.9811 34.4776 47.4469C34.9534 46.9126 35.5392 46.4908 36.1936 46.2112C36.8479 45.9316 37.5549 45.8011 38.2645 45.8289C38.9742 45.8566 39.6691 46.042 40.3002 46.3719C41.3953 46.9467 42.2336 47.922 42.6454 49.1C43.0571 50.2781 43.0114 51.5707 42.5175 52.7159L38.5764 61.8123L30.3398 59.5819Z" fill="#CCCCCC"/>
<path d="M53.094 68.5156L65.2943 132.559L58.7249 134.461L42.7707 92.2939L35.5756 135.412L28.6934 136.363C28.6934 136.363 25.6745 79.3126 39.0167 68.8327L53.094 68.5156Z" fill="#2F2E41"/>
<path d="M69.4918 61.8681C69.3861 61.9957 69.2905 62.1315 69.2059 62.2743L54.4927 62.9972L51.6595 54.2314L46.7402 56.601L51.3702 69.657L69.5666 66.0504C69.9942 66.5236 70.5538 66.8535 71.1709 66.9965C71.788 67.1394 72.4335 67.0886 73.0214 66.8507C73.6093 66.6128 74.1119 66.1991 74.4622 65.6648C74.8125 65.1304 74.994 64.5005 74.9825 63.8591C74.971 63.2176 74.7671 62.5949 74.3979 62.0737C74.0288 61.5525 73.5118 61.1576 72.9157 60.9415C72.3197 60.7254 71.6728 60.6983 71.0612 60.8638C70.4496 61.0293 69.9022 61.3796 69.4918 61.8681V61.8681Z" fill="#A0616A"/>
<path d="M44.5235 50.731C44.4405 50.0162 44.5134 49.2917 44.7371 48.6086C44.9608 47.9255 45.3298 47.3005 45.8181 46.7779C46.3063 46.2552 46.9019 45.8476 47.5626 45.5839C48.2234 45.3202 48.9333 45.2068 49.6421 45.2518C50.8727 45.3318 52.0272 45.8832 52.8716 46.7941C53.7159 47.705 54.1869 48.9072 54.1889 50.157V60.0915L45.7626 61.4055L44.5235 50.731Z" fill="#CCCCCC"/>
<path d="M46.3463 38.9482C45.2514 38.9434 44.4067 37.775 44.4558 36.6664C44.5048 35.5578 45.2395 34.5825 46.1246 33.9292C47.0098 33.276 48.0478 32.8781 49.0349 32.3978C50.022 31.9175 51.0004 31.3184 51.6099 30.3965C51.978 29.793 52.1978 29.1088 52.2507 28.4014C52.3036 27.694 52.1881 26.984 51.9138 26.3313C51.3467 25.0257 50.3729 23.9446 49.1416 23.2535C47.3096 22.1771 45.1477 21.8307 43.0773 22.2817C41.0313 22.7367 37.982 23.9962 36.7833 25.7371L35.5334 29.1862C34.2598 30.7384 35.2458 33.0434 36.0288 34.8997C36.8117 36.7559 38.4787 38.1525 40.3597 38.8165C42.2682 39.438 44.3112 39.5001 46.253 38.9955" fill="#2F2E41"/>
<path d="M39.6802 27.4607C39.1429 26.588 38.2115 26.0329 37.2487 25.7071C36.1333 25.3297 34.9471 25.2183 33.7822 25.3816C32.6174 25.5449 31.5055 25.9785 30.5331 26.6485C29.5606 27.3186 28.7539 28.2071 28.1757 29.2449C27.5976 30.2826 27.2635 31.4416 27.1996 32.6316C27.0976 34.5324 27.6849 36.3912 28.03 38.2624C28.375 40.1336 28.4437 42.2003 27.4257 43.8001C26.6503 45.0186 25.3572 45.7858 24.0809 46.4409C23.0172 46.9869 21.8666 47.4993 20.679 47.3905C19.4915 47.2817 18.2979 46.3284 18.3295 45.1204C17.9319 45.9866 17.6635 46.9077 17.5329 47.8538C17.4494 48.8039 17.6804 49.829 18.3575 50.4914C19.3416 51.4543 20.9008 51.3839 22.2532 51.1761C25.181 50.7263 28.1456 49.883 30.4587 48.0092C32.7717 46.1353 34.3065 43.0497 33.6974 40.1128C33.443 38.886 32.845 37.766 32.3618 36.6119C31.8785 35.4579 31.5013 34.1956 31.7233 32.9623C31.8547 32.3269 32.1221 31.7285 32.5066 31.2093C32.8912 30.6901 33.3834 30.2628 33.9488 29.9575C35.092 29.355 36.4002 29.154 37.6683 29.3858C38.4997 29.5241 39.5378 29.7388 40.0309 29.0465C40.1616 28.8271 40.2283 28.5748 40.2234 28.3186C40.2185 28.0624 40.1421 27.8129 40.0031 27.5989C39.7186 27.1756 39.3563 26.8118 38.936 26.5274" fill="#2F2E41"/>
<path d="M105.874 54.8717L118.628 46.3782C123.622 43.0525 124.982 36.2538 121.666 31.1926C118.35 26.1316 111.613 24.7246 106.619 28.0502L93.8653 36.5438C88.8714 39.8693 87.5113 46.6681 90.8275 51.7294C94.1436 56.7906 100.88 58.1975 105.874 54.8717Z" fill="#EC0080"/>
<path d="M115.274 45.9957C113.53 45.6296 112.099 44.5741 111.204 43.1716L111.203 43.1722L100.435 26.7914C97.1112 21.7345 90.3707 20.32 85.3801 23.6322L85.3801 23.6324C80.3896 26.9449 79.0388 33.7296 82.3629 38.7868L90.8529 51.7027C94.1772 56.7599 100.918 58.1744 105.908 54.8619L112.215 50.6761L112.217 50.6795L118.655 46.4066C119.574 45.7963 120.37 45.0675 121.036 44.2538C119.588 45.7266 117.45 46.4522 115.274 45.9957Z" fill="white"/>
</g>
<defs>
<clipPath id="clip0">
<rect width="216" height="144" fill="white"/>
</clipPath>
</defs>
</svg>
