<svg width="144" height="120" viewBox="0 0 144 120" fill="none" xmlns="http://www.w3.org/2000/svg">
<path d="M67.7312 17.4864C70.0273 13.3523 75.9727 13.3523 78.2688 17.4864C79.6295 19.9364 82.4994 21.1251 85.1939 20.3549C89.7407 19.0552 93.9448 23.2593 92.6451 27.8061C91.8749 30.5006 93.0636 33.3705 95.5136 34.7312C99.6477 37.0273 99.6477 42.9727 95.5136 45.2688C93.0636 46.6295 91.8749 49.4994 92.6451 52.1939C93.9448 56.7407 89.7407 60.9448 85.1939 59.6451C82.4994 58.8749 79.6295 60.0636 78.2688 62.5136C75.9727 66.6477 70.0273 66.6477 67.7312 62.5136C66.3705 60.0636 63.5006 58.8749 60.8061 59.6451C56.2593 60.9448 52.0552 56.7407 53.3549 52.1939C54.1251 49.4994 52.9364 46.6295 50.4864 45.2688C46.3523 42.9727 46.3523 37.0273 50.4864 34.7312C52.9364 33.3705 54.1251 30.5006 53.3549 27.8061C52.0552 23.2593 56.2593 19.0552 60.8061 20.3549C63.5006 21.1251 66.3705 19.9364 67.7312 17.4864Z" fill="#BBBBBB"/>
<rect x="0.5" y="0.5" width="143" height="119" rx="7.5" stroke="#BBBBBB" stroke-dasharray="4 4"/>
<path d="M16.3905 102.126C15.5145 102.126 14.7225 101.976 14.0145 101.676C13.3185 101.376 12.7665 100.944 12.3585 100.38C11.9505 99.816 11.7405 99.15 11.7285 98.382H14.4285C14.4645 98.898 14.6445 99.306 14.9685 99.606C15.3045 99.906 15.7605 100.056 16.3365 100.056C16.9245 100.056 17.3865 99.918 17.7225 99.642C18.0585 99.354 18.2265 98.982 18.2265 98.526C18.2265 98.154 18.1125 97.848 17.8845 97.608C17.6565 97.368 17.3685 97.182 17.0205 97.05C16.6845 96.906 16.2165 96.75 15.6165 96.582C14.8005 96.342 14.1345 96.108 13.6185 95.88C13.1145 95.64 12.6765 95.286 12.3045 94.818C11.9445 94.338 11.7645 93.702 11.7645 92.91C11.7645 92.166 11.9505 91.518 12.3225 90.966C12.6945 90.414 13.2165 89.994 13.8885 89.706C14.5605 89.406 15.3285 89.256 16.1925 89.256C17.4885 89.256 18.5385 89.574 19.3425 90.21C20.1585 90.834 20.6085 91.71 20.6925 92.838H17.9205C17.8965 92.406 17.7105 92.052 17.3625 91.776C17.0265 91.488 16.5765 91.344 16.0125 91.344C15.5205 91.344 15.1245 91.47 14.8245 91.722C14.5365 91.974 14.3925 92.34 14.3925 92.82C14.3925 93.156 14.5005 93.438 14.7165 93.666C14.9445 93.882 15.2205 94.062 15.5445 94.206C15.8805 94.338 16.3485 94.494 16.9485 94.674C17.7645 94.914 18.4305 95.154 18.9465 95.394C19.4625 95.634 19.9065 95.994 20.2785 96.474C20.6505 96.954 20.8365 97.584 20.8365 98.364C20.8365 99.036 20.6625 99.66 20.3145 100.236C19.9665 100.812 19.4565 101.274 18.7845 101.622C18.1125 101.958 17.3145 102.126 16.3905 102.126ZM25.5053 89.436V97.212C25.5053 98.064 25.7273 98.718 26.1713 99.174C26.6153 99.618 27.2393 99.84 28.0433 99.84C28.8593 99.84 29.4893 99.618 29.9333 99.174C30.3773 98.718 30.5993 98.064 30.5993 97.212V89.436H33.1373V97.194C33.1373 98.262 32.9033 99.168 32.4353 99.912C31.9793 100.644 31.3613 101.196 30.5813 101.568C29.8133 101.94 28.9553 102.126 28.0073 102.126C27.0713 102.126 26.2193 101.94 25.4513 101.568C24.6953 101.196 24.0953 100.644 23.6513 99.912C23.2073 99.168 22.9853 98.262 22.9853 97.194V89.436H25.5053ZM43.2761 99.606H38.2721L37.4441 102H34.7981L39.3161 89.418H42.2501L46.7681 102H44.1041L43.2761 99.606ZM42.5921 97.59L40.7741 92.334L38.9561 97.59H42.5921ZM55.2659 91.47V94.62H59.4959V96.618H55.2659V99.948H60.0359V102H52.7459V89.418H60.0359V91.47H55.2659ZM76.024 89.436V102H73.504V93.828L70.138 102H68.23L64.846 93.828V102H62.326V89.436H65.188L69.184 98.778L73.18 89.436H76.024ZM87.6774 93.324C87.6774 93.996 87.5154 94.626 87.1914 95.214C86.8794 95.802 86.3814 96.276 85.6974 96.636C85.0254 96.996 84.1734 97.176 83.1414 97.176H81.0354V102H78.5154V89.436H83.1414C84.1134 89.436 84.9414 89.604 85.6254 89.94C86.3094 90.276 86.8194 90.738 87.1554 91.326C87.5034 91.914 87.6774 92.58 87.6774 93.324ZM83.0334 95.142C83.7294 95.142 84.2454 94.986 84.5814 94.674C84.9174 94.35 85.0854 93.9 85.0854 93.324C85.0854 92.1 84.4014 91.488 83.0334 91.488H81.0354V95.142H83.0334ZM95.9466 102L93.1746 97.104H91.9866V102H89.4666V89.436H94.1826C95.1546 89.436 95.9826 89.61 96.6666 89.958C97.3506 90.294 97.8606 90.756 98.1966 91.344C98.5446 91.92 98.7186 92.568 98.7186 93.288C98.7186 94.116 98.4786 94.866 97.9986 95.538C97.5186 96.198 96.8046 96.654 95.8566 96.906L98.8626 102H95.9466ZM91.9866 95.214H94.0926C94.7766 95.214 95.2866 95.052 95.6226 94.728C95.9586 94.392 96.1266 93.93 96.1266 93.342C96.1266 92.766 95.9586 92.322 95.6226 92.01C95.2866 91.686 94.7766 91.524 94.0926 91.524H91.9866V95.214ZM103.518 91.47V94.62H107.748V96.618H103.518V99.948H108.288V102H100.998V89.418H108.288V91.47H103.518ZM114.916 102.126C114.04 102.126 113.248 101.976 112.54 101.676C111.844 101.376 111.292 100.944 110.884 100.38C110.476 99.816 110.266 99.15 110.254 98.382H112.954C112.99 98.898 113.17 99.306 113.494 99.606C113.83 99.906 114.286 100.056 114.862 100.056C115.45 100.056 115.912 99.918 116.248 99.642C116.584 99.354 116.752 98.982 116.752 98.526C116.752 98.154 116.638 97.848 116.41 97.608C116.182 97.368 115.894 97.182 115.546 97.05C115.21 96.906 114.742 96.75 114.142 96.582C113.326 96.342 112.66 96.108 112.144 95.88C111.64 95.64 111.202 95.286 110.83 94.818C110.47 94.338 110.29 93.702 110.29 92.91C110.29 92.166 110.476 91.518 110.848 90.966C111.22 90.414 111.742 89.994 112.414 89.706C113.086 89.406 113.854 89.256 114.718 89.256C116.014 89.256 117.064 89.574 117.868 90.21C118.684 90.834 119.134 91.71 119.218 92.838H116.446C116.422 92.406 116.236 92.052 115.888 91.776C115.552 91.488 115.102 91.344 114.538 91.344C114.046 91.344 113.65 91.47 113.35 91.722C113.062 91.974 112.918 92.34 112.918 92.82C112.918 93.156 113.026 93.438 113.242 93.666C113.47 93.882 113.746 94.062 114.07 94.206C114.406 94.338 114.874 94.494 115.474 94.674C116.29 94.914 116.956 95.154 117.472 95.394C117.988 95.634 118.432 95.994 118.804 96.474C119.176 96.954 119.362 97.584 119.362 98.364C119.362 99.036 119.188 99.66 118.84 100.236C118.492 100.812 117.982 101.274 117.31 101.622C116.638 101.958 115.84 102.126 114.916 102.126ZM129.251 99.606H124.247L123.419 102H120.773L125.291 89.418H128.225L132.743 102H130.079L129.251 99.606ZM128.567 97.59L126.749 92.334L124.931 97.59H128.567Z" fill="#7C7C7C"/>
<path d="M26.4862 84L24.4942 80.58H23.1742V84H22.0822V75.636H24.7822C25.4142 75.636 25.9462 75.744 26.3782 75.96C26.8182 76.176 27.1462 76.468 27.3622 76.836C27.5782 77.204 27.6862 77.624 27.6862 78.096C27.6862 78.672 27.5182 79.18 27.1822 79.62C26.8542 80.06 26.3582 80.352 25.6942 80.496L27.7942 84H26.4862ZM23.1742 79.704H24.7822C25.3742 79.704 25.8182 79.56 26.1142 79.272C26.4102 78.976 26.5582 78.584 26.5582 78.096C26.5582 77.6 26.4102 77.216 26.1142 76.944C25.8262 76.672 25.3822 76.536 24.7822 76.536H23.1742V79.704ZM30.475 76.524V79.32H33.523V80.22H30.475V83.1H33.883V84H29.383V75.624H33.883V76.524H30.475ZM38.1873 84.084C37.6353 84.084 37.1393 83.988 36.6993 83.796C36.2673 83.596 35.9273 83.324 35.6793 82.98C35.4313 82.628 35.3033 82.224 35.2953 81.768H36.4593C36.4993 82.16 36.6593 82.492 36.9393 82.764C37.2273 83.028 37.6433 83.16 38.1873 83.16C38.7073 83.16 39.1153 83.032 39.4113 82.776C39.7153 82.512 39.8673 82.176 39.8673 81.768C39.8673 81.448 39.7793 81.188 39.6033 80.988C39.4273 80.788 39.2073 80.636 38.9433 80.532C38.6793 80.428 38.3233 80.316 37.8753 80.196C37.3233 80.052 36.8793 79.908 36.5433 79.764C36.2153 79.62 35.9313 79.396 35.6913 79.092C35.4593 78.78 35.3433 78.364 35.3433 77.844C35.3433 77.388 35.4593 76.984 35.6913 76.632C35.9233 76.28 36.2473 76.008 36.6633 75.816C37.0873 75.624 37.5713 75.528 38.1153 75.528C38.8993 75.528 39.5393 75.724 40.0353 76.116C40.5393 76.508 40.8233 77.028 40.8873 77.676H39.6873C39.6473 77.356 39.4793 77.076 39.1833 76.836C38.8873 76.588 38.4953 76.464 38.0073 76.464C37.5513 76.464 37.1793 76.584 36.8913 76.824C36.6033 77.056 36.4593 77.384 36.4593 77.808C36.4593 78.112 36.5433 78.36 36.7113 78.552C36.8873 78.744 37.0993 78.892 37.3473 78.996C37.6033 79.092 37.9593 79.204 38.4153 79.332C38.9673 79.484 39.4113 79.636 39.7473 79.788C40.0833 79.932 40.3713 80.16 40.6113 80.472C40.8513 80.776 40.9713 81.192 40.9713 81.72C40.9713 82.128 40.8633 82.512 40.6473 82.872C40.4313 83.232 40.1113 83.524 39.6873 83.748C39.2633 83.972 38.7633 84.084 38.1873 84.084ZM43.6703 76.524V79.32H46.7183V80.22H43.6703V83.1H47.0783V84H42.5783V75.624H47.0783V76.524H43.6703ZM53.1346 84L51.1426 80.58H49.8226V84H48.7306V75.636H51.4306C52.0626 75.636 52.5946 75.744 53.0266 75.96C53.4666 76.176 53.7946 76.468 54.0106 76.836C54.2266 77.204 54.3346 77.624 54.3346 78.096C54.3346 78.672 54.1666 79.18 53.8306 79.62C53.5026 80.06 53.0066 80.352 52.3426 80.496L54.4426 84H53.1346ZM49.8226 79.704H51.4306C52.0226 79.704 52.4666 79.56 52.7626 79.272C53.0586 78.976 53.2066 78.584 53.2066 78.096C53.2066 77.6 53.0586 77.216 52.7626 76.944C52.4746 76.672 52.0306 76.536 51.4306 76.536H49.8226V79.704ZM62.9434 75.636L59.7874 84H58.5274L55.3714 75.636H56.5354L59.1634 82.848L61.7914 75.636H62.9434ZM69.0848 82.14H65.4368L64.7648 84H63.6128L66.6368 75.684H67.8968L70.9088 84H69.7568L69.0848 82.14ZM68.7728 81.252L67.2608 77.028L65.7488 81.252H68.7728ZM74.8307 75.636C75.7427 75.636 76.5307 75.808 77.1947 76.152C77.8667 76.488 78.3787 76.972 78.7307 77.604C79.0907 78.236 79.2707 78.98 79.2707 79.836C79.2707 80.692 79.0907 81.436 78.7307 82.068C78.3787 82.692 77.8667 83.172 77.1947 83.508C76.5307 83.836 75.7427 84 74.8307 84H72.2267V75.636H74.8307ZM74.8307 83.1C75.9107 83.1 76.7347 82.816 77.3027 82.248C77.8707 81.672 78.1547 80.868 78.1547 79.836C78.1547 78.796 77.8667 77.984 77.2907 77.4C76.7227 76.816 75.9027 76.524 74.8307 76.524H73.3187V83.1H74.8307ZM84.5031 84.084C83.7271 84.084 83.0191 83.904 82.3791 83.544C81.7391 83.176 81.2311 82.668 80.8551 82.02C80.4871 81.364 80.3031 80.628 80.3031 79.812C80.3031 78.996 80.4871 78.264 80.8551 77.616C81.2311 76.96 81.7391 76.452 82.3791 76.092C83.0191 75.724 83.7271 75.54 84.5031 75.54C85.2871 75.54 85.9991 75.724 86.6391 76.092C87.2791 76.452 87.7831 76.956 88.1511 77.604C88.5191 78.252 88.7031 78.988 88.7031 79.812C88.7031 80.636 88.5191 81.372 88.1511 82.02C87.7831 82.668 87.2791 83.176 86.6391 83.544C85.9991 83.904 85.2871 84.084 84.5031 84.084ZM84.5031 83.136C85.0871 83.136 85.6111 83 86.0751 82.728C86.5471 82.456 86.9151 82.068 87.1791 81.564C87.4511 81.06 87.5871 80.476 87.5871 79.812C87.5871 79.14 87.4511 78.556 87.1791 78.06C86.9151 77.556 86.5511 77.168 86.0871 76.896C85.6231 76.624 85.0951 76.488 84.5031 76.488C83.9111 76.488 83.3831 76.624 82.9191 76.896C82.4551 77.168 82.0871 77.556 81.8151 78.06C81.5511 78.556 81.4191 79.14 81.4191 79.812C81.4191 80.476 81.5511 81.06 81.8151 81.564C82.0871 82.068 82.4551 82.456 82.9191 82.728C83.3911 83 83.9191 83.136 84.5031 83.136ZM98.9359 78.084C98.9359 78.78 98.6959 79.36 98.2159 79.824C97.7439 80.28 97.0199 80.508 96.0439 80.508H94.4359V84H93.3439V75.636H96.0439C96.9879 75.636 97.7039 75.864 98.1919 76.32C98.6879 76.776 98.9359 77.364 98.9359 78.084ZM96.0439 79.608C96.6519 79.608 97.0999 79.476 97.3879 79.212C97.6759 78.948 97.8199 78.572 97.8199 78.084C97.8199 77.052 97.2279 76.536 96.0439 76.536H94.4359V79.608H96.0439ZM105.237 82.14H101.589L100.917 84H99.7651L102.789 75.684H104.049L107.061 84H105.909L105.237 82.14ZM104.925 81.252L103.413 77.028L101.901 81.252H104.925ZM112.783 84L110.791 80.58H109.471V84H108.379V75.636H111.079C111.711 75.636 112.243 75.744 112.675 75.96C113.115 76.176 113.443 76.468 113.659 76.836C113.875 77.204 113.983 77.624 113.983 78.096C113.983 78.672 113.815 79.18 113.479 79.62C113.151 80.06 112.655 80.352 111.991 80.496L114.091 84H112.783ZM109.471 79.704H111.079C111.671 79.704 112.115 79.56 112.411 79.272C112.707 78.976 112.855 78.584 112.855 78.096C112.855 77.6 112.707 77.216 112.411 76.944C112.123 76.672 111.679 76.536 111.079 76.536H109.471V79.704ZM120.624 82.14H116.976L116.304 84H115.152L118.176 75.684H119.436L122.448 84H121.296L120.624 82.14ZM120.312 81.252L118.8 77.028L117.288 81.252H120.312Z" fill="#7C7C7C"/>
</svg>
