<svg width="28" height="18" viewBox="0 0 28 18" fill="none" xmlns="http://www.w3.org/2000/svg">
<path d="M27.125 7.125H27.5V2.25C27.5 1.03125 26.4688 0 25.25 0H2.75C1.48438 0 0.5 1.03125 0.5 2.25V7.125H0.875C1.90625 7.125 2.75 7.96875 2.75 9C2.75 10.0781 1.90625 10.875 0.875 10.875H0.5V15.75C0.5 17.0156 1.48438 18 2.75 18H25.25C26.4688 18 27.5 17.0156 27.5 15.75V10.875H27.125C26.0469 10.875 25.25 10.0781 25.25 9C25.25 7.96875 26.0469 7.125 27.125 7.125ZM25.25 5.34375C23.8906 6.04688 23 7.40625 23 9C23 10.6406 23.8906 12 25.25 12.7031V15.75H2.75V12.7031C4.0625 12 5 10.6406 5 9C5 7.40625 4.0625 6.04688 2.75 5.34375V2.25H25.25V5.34375Z" fill="#EC0080"/>
</svg>
